<svg width="24" height="24" viewBox="0 0 24 24" fill="none" xmlns="http://www.w3.org/2000/svg">
<path fill-rule="evenodd" clip-rule="evenodd" d="M3 4C3 3.44772 3.44772 3 4 3H20C20.5523 3 21 3.44772 21 4C21 4.55228 20.5523 5 20 5H4C3.44772 5 3 4.55228 3 4ZM9.5286 15.5286C9.78895 15.2682 10.2111 15.2682 10.4714 15.5286L11.3333 16.3905V7.60948L10.4714 8.47141C10.2111 8.73176 9.78894 8.73176 9.52859 8.47141C9.26824 8.21106 9.26824 7.78895 9.52859 7.5286L11.5286 5.5286C11.7889 5.26825 12.2111 5.26825 12.4714 5.5286L14.4714 7.5286C14.7318 7.78895 14.7318 8.21106 14.4714 8.47141C14.2111 8.73176 13.7889 8.73176 13.5286 8.47141L12.6667 7.60949V16.3905L13.5286 15.5286C13.7889 15.2682 14.2111 15.2682 14.4714 15.5286C14.7318 15.7889 14.7318 16.2111 14.4714 16.4714L12.4714 18.4714C12.2111 18.7317 11.7889 18.7317 11.5286 18.4714L9.5286 16.4714C9.26825 16.2111 9.26825 15.7889 9.5286 15.5286ZM4 19C3.44772 19 3 19.4477 3 20C3 20.5523 3.44772 21 4 21H20C20.5523 21 21 20.5523 21 20C21 19.4477 20.5523 19 20 19H4Z" fill="#171717"/>
</svg>
