<svg width="24" height="24" viewBox="0 0 24 24" fill="none" xmlns="http://www.w3.org/2000/svg">
<path d="M19 11.5008L11.9083 18.635C11.0396 19.509 9.86124 20 8.6326 20C7.40396 20 6.22564 19.509 5.35686 18.635C4.48808 17.761 4 16.5756 4 15.3396C4 14.1036 4.48808 12.9182 5.35686 12.0442L12.4485 4.91C13.0277 4.32734 13.8132 4 14.6323 4C15.4514 4 16.237 4.32734 16.8162 4.91C17.3954 5.49266 17.7207 6.28292 17.7207 7.10693C17.7207 7.93094 17.3954 8.7212 16.8162 9.30386L9.7168 16.4381C9.4272 16.7294 9.03443 16.8931 8.62488 16.8931C8.21534 16.8931 7.82256 16.7294 7.53297 16.4381C7.24338 16.1467 7.08068 15.7516 7.08068 15.3396C7.08068 14.9276 7.24338 14.5325 7.53297 14.2411L14.0845 7.6581" stroke="black" stroke-width="1.5" stroke-linecap="round" stroke-linejoin="round"/>
</svg>
