<svg width="24" height="24" viewBox="0 0 24 24" fill="none" xmlns="http://www.w3.org/2000/svg">
<path fill-rule="evenodd" clip-rule="evenodd" d="M12 4.5C9.51472 4.5 7.5 6.51472 7.5 9C7.5 11.4853 9.51472 13.5 12 13.5C14.4853 13.5 16.5 11.4853 16.5 9C16.5 6.51472 14.4853 4.5 12 4.5ZM6 9C6 5.68629 8.68629 3 12 3C15.3137 3 18 5.68629 18 9C18 12.3137 15.3137 15 12 15C8.68629 15 6 12.3137 6 9Z" fill="#006644"/>
<path fill-rule="evenodd" clip-rule="evenodd" d="M15.0487 13.0063C15.505 12.9541 15.9239 13.231 15.9844 13.6249L16.9927 20.186C17.0348 20.4598 16.8916 20.7303 16.6241 20.8819C16.3567 21.0335 16.0123 21.0396 15.7379 20.8975L12 18.9613L8.26209 20.8975C7.9877 21.0396 7.64327 21.0335 7.37582 20.8819C7.10837 20.7302 6.96514 20.4597 7.00727 20.1859L8.0156 13.632C8.0762 13.2381 8.49517 12.9612 8.9514 13.0135C9.40763 13.0659 9.72835 13.4276 9.66775 13.8214L8.88705 18.8958L11.5713 17.5054C11.8352 17.3687 12.1648 17.3687 12.4287 17.5054L15.1132 18.8959L14.3322 13.8141C14.2717 13.4202 14.5925 13.0586 15.0487 13.0063Z" fill="#006644"/>
</svg>
