<svg width="24" height="24" viewBox="0 0 24 24" fill="none" xmlns="http://www.w3.org/2000/svg">
<path d="M4.92867 13.7393L4.3571 13.2537H4.3571L4.92867 13.7393ZM5.75616 11.818L5.01092 11.7336L5.75616 11.818ZM18.3016 11.818L19.0469 11.7336V11.7336L18.3016 11.818ZM19.1291 13.7393L19.7007 13.2537L19.1291 13.7393ZM17.9771 8.95283L17.2318 9.03725V9.03725L17.9771 8.95283ZM6.08072 8.95283L6.82596 9.03725L6.08072 8.95283ZM15.5545 18.821C15.6999 18.4331 15.5033 18.0008 15.1154 17.8555C14.7276 17.7101 14.2953 17.9067 14.1499 18.2946L15.5545 18.821ZM9.90785 18.2946C9.76249 17.9067 9.33022 17.7101 8.94235 17.8555C8.55448 18.0008 8.35789 18.4331 8.50326 18.821L9.90785 18.2946ZM17.8354 15.9256H6.22236V17.4256H17.8354V15.9256ZM17.2318 9.03725L17.5564 11.9024L19.0469 11.7336L18.7223 8.86841L17.2318 9.03725ZM6.50139 11.9024L6.82596 9.03725L5.33549 8.86841L5.01092 11.7336L6.50139 11.9024ZM5.50024 14.2249C6.05622 13.5705 6.40419 12.7604 6.50139 11.9024L5.01092 11.7336C4.94682 12.2995 4.7177 12.8293 4.3571 13.2537L5.50024 14.2249ZM17.5564 11.9024C17.6536 12.7604 18.0016 13.5705 18.5575 14.2249L19.7007 13.2537C19.3401 12.8293 19.111 12.2995 19.0469 11.7336L17.5564 11.9024ZM6.22236 15.9256C5.42799 15.9256 4.91329 14.9158 5.50024 14.2249L4.3571 13.2537C2.99895 14.8523 4.06292 17.4256 6.22236 17.4256V15.9256ZM17.8354 17.4256C19.9949 17.4256 21.0588 14.8523 19.7007 13.2537L18.5575 14.2249C19.1445 14.9158 18.6298 15.9256 17.8354 15.9256V17.4256ZM18.7223 8.86841C18.3292 5.39805 15.4666 2.75 12.0289 2.75V4.25C14.669 4.25 16.9206 6.2903 17.2318 9.03725L18.7223 8.86841ZM6.82596 9.03725C7.13713 6.2903 9.38881 4.25 12.0289 4.25V2.75C8.59117 2.75 5.72861 5.39805 5.33549 8.86841L6.82596 9.03725ZM14.1499 18.2946C13.8529 19.0871 13.0319 19.69 12.0289 19.69V21.19C13.6328 21.19 15.0296 20.2217 15.5545 18.821L14.1499 18.2946ZM12.0289 19.69C11.0259 19.69 10.2049 19.0871 9.90785 18.2946L8.50326 18.821C9.02819 20.2217 10.425 21.19 12.0289 21.19V19.69Z" fill="#171717"/>
</svg>
