<svg width="24" height="24" viewBox="0 0 24 24" fill="none" xmlns="http://www.w3.org/2000/svg">
<path d="M4.4287 13.74L3.85713 13.2544H3.85713L4.4287 13.74ZM5.25624 11.8186L4.51101 11.7342L5.25624 11.8186ZM18.6301 13.74L19.2017 13.2544L18.6301 13.74ZM5.58083 8.95321L6.32607 9.03763L5.58083 8.95321ZM15.0552 18.822C15.2006 18.4342 15.004 18.0019 14.6161 17.8565C14.2283 17.7112 13.796 17.9078 13.6506 18.2956L15.0552 18.822ZM9.40818 18.2956C9.26282 17.9078 8.83055 17.7112 8.44268 17.8565C8.05481 18.0019 7.85822 18.4342 8.00358 18.822L9.40818 18.2956ZM14.3027 5.07108C14.6506 5.29591 15.1149 5.19615 15.3397 4.84826C15.5646 4.50038 15.4648 4.0361 15.1169 3.81127L14.3027 5.07108ZM18.6857 12.3458C18.5511 11.9541 18.1244 11.7457 17.7327 11.8803C17.3409 12.0149 17.1325 12.4415 17.2671 12.8333L18.6857 12.3458ZM17.3363 15.9265H5.72248V17.4265H17.3363V15.9265ZM6.00148 11.903L6.32607 9.03763L4.8356 8.86879L4.51101 11.7342L6.00148 11.903ZM5.00027 14.2257C5.55629 13.5712 5.90428 12.7611 6.00148 11.903L4.51101 11.7342C4.4469 12.3001 4.21776 12.83 3.85713 13.2544L5.00027 14.2257ZM5.72248 15.9265C4.928 15.9265 4.41325 14.9166 5.00027 14.2257L3.85713 13.2544C2.49891 14.8531 3.56294 17.4265 5.72248 17.4265V15.9265ZM17.3363 17.4265C19.4959 17.4265 20.5599 14.8531 19.2017 13.2544L18.0586 14.2257C18.6456 14.9166 18.1308 15.9265 17.3363 15.9265V17.4265ZM6.32607 9.03763C6.63727 6.29046 8.88913 4.25 11.5294 4.25V2.75C8.09148 2.75 5.22875 5.39821 4.8356 8.86879L6.32607 9.03763ZM13.6506 18.2956C13.3536 19.0882 12.5325 19.6912 11.5294 19.6912V21.1912C13.1334 21.1912 14.5303 20.2228 15.0552 18.822L13.6506 18.2956ZM11.5294 19.6912C10.5263 19.6912 9.70521 19.0882 9.40818 18.2956L8.00358 18.822C8.52855 20.2228 9.92541 21.1912 11.5294 21.1912V19.6912ZM15.1169 3.81127C14.0749 3.13786 12.842 2.75 11.5294 2.75V4.25C12.5425 4.25 13.4943 4.54859 14.3027 5.07108L15.1169 3.81127ZM17.2671 12.8333C17.4415 13.3409 17.7089 13.814 18.0586 14.2257L19.2017 13.2544C18.975 12.9876 18.8002 12.6791 18.6857 12.3458L17.2671 12.8333Z" fill="#171717"/>
<circle cx="17.1765" cy="8.20588" r="2.82353" fill="#EF1111"/>
</svg>
