<svg width="24" height="24" viewBox="0 0 24 24" fill="none" xmlns="http://www.w3.org/2000/svg">
<path d="M4 15.075C4.76871 15.222 5.47435 15.5776 6.02911 16.0977C6.58386 16.6178 6.96323 17.2793 7.12 18M4 12.0375C5.62463 12.2069 7.13942 12.8895 8.29529 13.9732C9.45116 15.0568 10.1793 16.4769 10.36 18M4 9V7.5C4 7.10218 4.16857 6.72064 4.46863 6.43934C4.76869 6.15804 5.17565 6 5.6 6H18.4C18.8243 6 19.2313 6.15804 19.5314 6.43934C19.8314 6.72064 20 7.10218 20 7.5V16.5C20 16.8978 19.8314 17.2794 19.5314 17.5607C19.2313 17.842 18.8243 18 18.4 18H13.6" stroke="#171717" stroke-width="2" stroke-linecap="round" stroke-linejoin="round"/>
<path d="M4 18H4.01" stroke="#171717" stroke-width="2" stroke-linecap="round" stroke-linejoin="round"/>
</svg>
