<svg width="24" height="24" viewBox="0 0 24 24" fill="none" xmlns="http://www.w3.org/2000/svg">
<path d="M15 6H16.5C16.8978 6 17.2794 6.16389 17.5607 6.45561C17.842 6.74733 18 7.143 18 7.55556V18.4444C18 18.857 17.842 19.2527 17.5607 19.5444C17.2794 19.8361 16.8978 20 16.5 20H7.5C7.10218 20 6.72064 19.8361 6.43934 19.5444C6.15804 19.2527 6 18.857 6 18.4444V7.55556C6 7.143 6.15804 6.74733 6.43934 6.45561C6.72064 6.16389 7.10218 6 7.5 6H9" stroke="#171717" stroke-width="2" stroke-linecap="round" stroke-linejoin="round"/>
<path d="M14.25 4H9.75C9.33579 4 9 4.33579 9 4.75V6.25C9 6.66421 9.33579 7 9.75 7H14.25C14.6642 7 15 6.66421 15 6.25V4.75C15 4.33579 14.6642 4 14.25 4Z" stroke="#171717" stroke-width="2" stroke-linecap="round" stroke-linejoin="round"/>
</svg>
