<svg width="24" height="24" viewBox="0 0 24 24" fill="none" xmlns="http://www.w3.org/2000/svg">
<path d="M20 11V9C20 7.11438 20 6.17157 19.4142 5.58579C18.8284 5 17.8856 5 16 5H8C6.11438 5 5.17157 5 4.58579 5.58579C4 6.17157 4 7.11438 4 9V13C4 14.8856 4 15.8284 4.58579 16.4142C5.17157 17 6.11438 17 8 17H12" stroke="#171717" stroke-width="1.5" stroke-linecap="round"/>
<path d="M4 8.20001L11.1056 11.7528C11.6686 12.0343 12.3314 12.0343 12.8944 11.7528L20 8.20001" stroke="#171717" stroke-width="1.5" stroke-linecap="round"/>
<path d="M20.3333 16H15.6667C15.2985 16 15 16.3256 15 16.7273V19.2727C15 19.6744 15.2985 20 15.6667 20H20.3333C20.7015 20 21 19.6744 21 19.2727V16.7273C21 16.3256 20.7015 16 20.3333 16Z" stroke="#171717" stroke-width="1.5" stroke-linecap="round" stroke-linejoin="round"/>
<path d="M16 16V14.6667C16 14.2246 16.2107 13.8007 16.5858 13.4882C16.9609 13.1756 17.4696 13 18 13C18.5304 13 19.0391 13.1756 19.4142 13.4882C19.7893 13.8007 20 14.2246 20 14.6667V16" stroke="#171717" stroke-width="1.5" stroke-linecap="round" stroke-linejoin="round"/>
</svg>
