<svg width="24" height="24" viewBox="0 0 24 24" fill="none" xmlns="http://www.w3.org/2000/svg">
<path d="M18.3077 9H10.6923C9.75767 9 9 9.75767 9 10.6923V18.3077C9 19.2423 9.75767 20 10.6923 20H18.3077C19.2423 20 20 19.2423 20 18.3077V10.6923C20 9.75767 19.2423 9 18.3077 9Z" stroke="#171717" stroke-width="2" stroke-linecap="round" stroke-linejoin="round"/>
<path d="M6.53846 15H5.69231C5.24348 15 4.81303 14.8217 4.49567 14.5043C4.1783 14.187 4 13.7565 4 13.3077V5.69231C4 5.24348 4.1783 4.81303 4.49567 4.49567C4.81303 4.1783 5.24348 4 5.69231 4H13.3077C13.7565 4 14.187 4.1783 14.5043 4.49567C14.8217 4.81303 15 5.24348 15 5.69231V6.53846" stroke="#171717" stroke-width="2" stroke-linecap="round" stroke-linejoin="round"/>
</svg>
