<svg width="24" height="24" viewBox="0 0 24 24" fill="none" xmlns="http://www.w3.org/2000/svg">
<path d="M9.17648 6.82353V5.41176C9.17648 5.03734 9.32522 4.67825 9.58998 4.4135C9.85474 4.14874 10.2138 4 10.5882 4H13.4118C13.7862 4 14.1453 4.14874 14.41 4.4135C14.6748 4.67825 14.8235 5.03734 14.8235 5.41176V6.82353" stroke="#171717" stroke-width="1.5" stroke-linecap="round" stroke-linejoin="round"/>
<path d="M4.94116 6.82353V6.82353C5.47718 6.82353 5.92767 7.22614 5.98765 7.75879L6.86 15.5064C7.05029 17.1963 7.14543 18.0413 7.71469 18.5501C8.28396 19.0588 9.13427 19.0588 10.8349 19.0588H13.1651C14.8657 19.0588 15.716 19.0588 16.2853 18.5501C16.8546 18.0413 16.9497 17.1963 17.14 15.5064L18.0123 7.7588C18.0723 7.22615 18.5228 6.82353 19.0588 6.82353V6.82353" stroke="#171717" stroke-width="1.5" stroke-linecap="round"/>
<path d="M4 6.82353H20" stroke="#171717" stroke-width="1.5" stroke-linecap="round"/>
<path d="M10.5 11V15" stroke="#171717" stroke-width="1.5" stroke-linecap="round" stroke-linejoin="round"/>
<path d="M13.5 11V15" stroke="#171717" stroke-width="1.5" stroke-linecap="round" stroke-linejoin="round"/>
</svg>
