<svg width="24" height="24" viewBox="0 0 24 24" fill="none" xmlns="http://www.w3.org/2000/svg">
<path fill-rule="evenodd" clip-rule="evenodd" d="M20.7956 4.60585C21.1302 4.16647 21.0452 3.53903 20.6059 3.20442C20.1665 2.86981 19.539 2.95475 19.2044 3.39413L12.2117 12.5764L9.62744 10.4941C9.19739 10.1475 8.56786 10.2152 8.22133 10.6453C7.87481 11.0753 7.94252 11.7049 8.37256 12.0514L10.9569 14.1338C11.8337 14.8403 13.1207 14.684 13.8029 13.7882L20.7956 4.60585ZM9.53425 5.44866C10.9031 4.93346 12.399 4.85997 13.8117 5.23852C14.3452 5.38146 14.8935 5.06488 15.0365 4.53141C15.1794 3.99795 14.8628 3.44961 14.3294 3.30667C12.513 2.81996 10.5897 2.91445 8.82975 3.57685C7.06979 4.23925 5.56152 5.4363 4.51678 6.99987C3.47203 8.56344 2.94329 10.415 3.00482 12.2945C3.06635 14.174 3.71505 15.987 4.85982 17.4789C6.00459 18.9707 7.58792 20.0666 9.38744 20.6125C11.187 21.1583 13.1123 21.1268 14.893 20.5224C16.6737 19.9179 18.2203 18.7709 19.3156 17.2423C20.411 15.7137 21 13.8805 21 12C21 11.4477 20.5523 11 20 11C19.4477 11 19 11.4477 19 12C19 13.4626 18.5419 14.8885 17.6899 16.0773C16.838 17.2662 15.6351 18.1584 14.2501 18.6285C12.8651 19.0987 11.3676 19.1232 9.96801 18.6986C8.56838 18.274 7.33691 17.4217 6.44653 16.2613C5.55615 15.101 5.0516 13.6909 5.00375 12.229C4.95589 10.7672 5.36714 9.32712 6.17971 8.11101C6.99229 6.8949 8.16539 5.96386 9.53425 5.44866Z" fill="#171717"/>
</svg>
