<svg width="24" height="24" viewBox="0 0 24 24" fill="none" xmlns="http://www.w3.org/2000/svg">
<path fill-rule="evenodd" clip-rule="evenodd" d="M5 15.5C5.55228 15.5 6 15.9477 6 16.5V17.5C6 18.0523 6.44772 18.5 7 18.5L17 18.5C17.5523 18.5 18 18.0523 18 17.5V16.5C18 15.9477 18.4477 15.5 19 15.5C19.5523 15.5 20 15.9477 20 16.5V17.5C20 19.1569 18.6569 20.5 17 20.5L7 20.5C5.34315 20.5 4 19.1569 4 17.5V16.5C4 15.9477 4.44772 15.5 5 15.5Z" fill="#666869"/>
<path fill-rule="evenodd" clip-rule="evenodd" d="M7.78655 11.3618C8.17354 10.9678 8.80668 10.9621 9.20071 11.3491L11 13.1162L11 4.5C11 3.94771 11.4477 3.5 12 3.5C12.5523 3.5 13 3.94772 13 4.5L13 13.1162L14.7993 11.3491C15.1933 10.9621 15.8265 10.9678 16.2134 11.3618C16.6004 11.7558 16.5947 12.389 16.2007 12.7759L12.7007 16.2134C12.3117 16.5955 11.6883 16.5955 11.2993 16.2134L7.79929 12.7759C7.40527 12.389 7.39956 11.7558 7.78655 11.3618Z" fill="#666869"/>
</svg>
