<svg width="24" height="24" viewBox="0 0 24 24" fill="none" xmlns="http://www.w3.org/2000/svg">
<path d="M9 16L12 19L15 16" stroke="#171717" stroke-width="2" stroke-linecap="round" stroke-linejoin="round"/>
<path d="M12 12V19" stroke="#171717" stroke-width="2" stroke-linecap="round" stroke-linejoin="round"/>
<path d="M19.2633 17C19.9742 16.5142 20.5073 15.8209 20.7853 15.0207C21.0632 14.2206 21.0715 13.3551 20.8091 12.55C20.5466 11.7449 20.0269 11.042 19.3255 10.5434C18.6241 10.0448 17.7774 9.77629 16.9083 9.77695H15.878C15.632 8.84556 15.1719 7.98052 14.5321 7.24696C13.8924 6.5134 13.0897 5.93042 12.1846 5.54193C11.2794 5.15344 10.2954 4.96955 9.30653 5.00411C8.31767 5.03866 7.34976 5.29077 6.47566 5.74144C5.60157 6.19211 4.84408 6.8296 4.26021 7.60592C3.67634 8.38225 3.2813 9.27717 3.10485 10.2233C2.9284 11.1695 2.97512 12.1422 3.24151 13.0683C3.50789 13.9943 3.98699 14.8496 4.64274 15.5697" stroke="#171717" stroke-width="2" stroke-linecap="round" stroke-linejoin="round"/>
</svg>
