<svg width="24" height="24" viewBox="0 0 24 24" fill="none" xmlns="http://www.w3.org/2000/svg">
<path fill-rule="evenodd" clip-rule="evenodd" d="M21 12C21 16.9706 16.9706 21 12 21C7.02944 21 3 16.9706 3 12C3 7.02944 7.02944 3 12 3C16.9706 3 21 7.02944 21 12ZM11 16C11 15.4477 11.4477 15 12 15C12.5523 15 13 15.4477 13 16C13 16.5523 12.5523 17 12 17C11.4477 17 11 16.5523 11 16ZM13 9C13 8.44772 12.5523 8 12 8C11.4477 8 11 8.44772 11 9V13C11 13.5523 11.4477 14 12 14C12.5523 14 13 13.5523 13 13V9Z" fill="#171717"/>
</svg>
