<svg width="24" height="24" viewBox="0 0 24 24" fill="none" xmlns="http://www.w3.org/2000/svg">
<path fill-rule="evenodd" clip-rule="evenodd" d="M13.25 3C12.6977 3 12.25 3.44772 12.25 4C12.25 4.55228 12.6977 5 13.25 5H17.5858L10.2929 12.2929C9.90237 12.6834 9.90237 13.3166 10.2929 13.7071C10.6834 14.0976 11.3166 14.0976 11.7071 13.7071L19 6.41421V10.75C19 11.3023 19.4477 11.75 20 11.75C20.5523 11.75 21 11.3023 21 10.75V4C21 3.44772 20.5523 3 20 3H13.25ZM5 8C5 7.44772 5.44772 7 6 7H10C10.5523 7 11 6.55228 11 6C11 5.44772 10.5523 5 10 5H6C4.34315 5 3 6.34315 3 8V18C3 19.6569 4.34315 21 6 21H16C17.6569 21 19 19.6569 19 18V14C19 13.4477 18.5523 13 18 13C17.4477 13 17 13.4477 17 14V18C17 18.5523 16.5523 19 16 19H6C5.44772 19 5 18.5523 5 18V8Z" fill="#171717"/>
</svg>
