<svg width="24" height="24" viewBox="0 0 24 24" fill="none" xmlns="http://www.w3.org/2000/svg">
<path d="M13.5 4H7.5C7.10218 4 6.72064 4.16857 6.43934 4.46863C6.15804 4.76869 6 5.17565 6 5.6V18.4C6 18.8243 6.15804 19.2313 6.43934 19.5314C6.72064 19.8314 7.10218 20 7.5 20H16.5C16.8978 20 17.2794 19.8314 17.5607 19.5314C17.842 19.2313 18 18.8243 18 18.4V8.8L13.5 4Z" stroke="#171717" stroke-width="2" stroke-linecap="round" stroke-linejoin="round"/>
<path d="M13 4V9H17" stroke="#171717" stroke-width="2" stroke-linecap="round" stroke-linejoin="round"/>
<path d="M15 13H9" stroke="#171717" stroke-width="1.5" stroke-linecap="round" stroke-linejoin="round"/>
<path d="M15 16H9" stroke="#171717" stroke-width="1.5" stroke-linecap="round" stroke-linejoin="round"/>
<path d="M10 10H9.5H9" stroke="#171717" stroke-width="1.5" stroke-linecap="round" stroke-linejoin="round"/>
</svg>
