<svg width="24" height="24" viewBox="0 0 24 24" fill="none" xmlns="http://www.w3.org/2000/svg">
<path d="M19.8478 14.7994C19.7488 14.8694 17.6957 17.0768 17.6957 18.626C17.6957 20.2594 18.7169 21.3025 19.8478 21.3593C20.8228 21.4074 22 20.3852 22 18.626C22 16.9861 19.9468 14.8694 19.8478 14.7994ZM8.64156 21.3593C9.04832 21.7726 9.58851 22 10.1631 22C10.7378 22 11.278 21.7726 11.6847 21.3593L19.2173 13.7061L18.4565 12.9332L10.1631 4.50697L7.69568 2L6.17411 3.54594L8.64156 6.05291L2.63058 12.1602C2.22382 12.5735 2 13.1223 2 13.7061C2 14.29 2.22382 14.8388 2.63058 15.2521L8.64156 21.3593ZM10.1631 7.59885L16.1741 13.7061H4.15216L10.1631 7.59885Z" fill="black"/>
</svg>
