<svg width="24" height="24" viewBox="0 0 24 24" fill="none" xmlns="http://www.w3.org/2000/svg">
<path d="M17.8162 4.4453C17.7362 4.4453 17.6562 4.4255 17.5861 4.3859C15.6658 3.4058 14.0054 2.99 12.015 2.99C10.0346 2.99 8.15421 3.4553 6.44386 4.3859C6.20381 4.5146 5.90375 4.4255 5.76372 4.1879C5.6337 3.9503 5.72372 3.6434 5.96377 3.5147C7.82415 2.5148 9.86456 2 12.015 2C14.1454 2 16.0058 2.4653 18.0462 3.5048C18.2963 3.6335 18.3863 3.9305 18.2563 4.1681C18.1663 4.3463 17.9962 4.4453 17.8162 4.4453ZM3.50326 9.6428C3.40324 9.6428 3.30322 9.6131 3.2132 9.5537C2.98316 9.3953 2.93315 9.0884 3.09318 8.8607C4.08338 7.4747 5.34364 6.3857 6.84395 5.6234C9.98459 4.0196 14.0054 4.0097 17.1561 5.6135C18.6564 6.3758 19.9166 7.4549 20.9068 8.831C21.0669 9.0488 21.0168 9.3656 20.7868 9.524C20.5568 9.6824 20.2467 9.6329 20.0867 9.4052C19.1865 8.1578 18.0462 7.1777 16.696 6.4946C13.8254 5.0393 10.1546 5.0393 7.29404 6.5045C5.93376 7.1975 4.79353 8.1875 3.89334 9.4349C3.81333 9.5735 3.66329 9.6428 3.50326 9.6428ZM9.75454 21.5921C9.62451 21.5921 9.49449 21.5426 9.40447 21.4436C8.53429 20.5823 8.0642 20.0279 7.39406 18.83C6.70392 17.6123 6.34384 16.1273 6.34384 14.5334C6.34384 11.5931 8.88436 9.1973 12.005 9.1973C15.1256 9.1973 17.6662 11.5931 17.6662 14.5334C17.6662 14.8106 17.4461 15.0284 17.1661 15.0284C16.886 15.0284 16.666 14.8106 16.666 14.5334C16.666 12.1376 14.5755 10.1873 12.005 10.1873C9.43448 10.1873 7.34405 12.1376 7.34405 14.5334C7.34405 15.959 7.66411 17.2757 8.27424 18.3449C8.91437 19.4834 9.35446 19.9685 10.1246 20.7407C10.3147 20.9387 10.3147 21.2456 10.1246 21.4436C10.0146 21.5426 9.88457 21.5921 9.75454 21.5921ZM16.926 19.7606C15.7358 19.7606 14.6855 19.4636 13.8254 18.8795C12.3351 17.8796 11.4449 16.256 11.4449 14.5334C11.4449 14.2562 11.6649 14.0384 11.945 14.0384C12.225 14.0384 12.4451 14.2562 12.4451 14.5334C12.4451 15.9293 13.1652 17.246 14.3855 18.0578C15.0956 18.533 15.9258 18.7607 16.926 18.7607C17.1661 18.7607 17.5661 18.731 17.9662 18.6617C18.2363 18.6122 18.4963 18.7904 18.5463 19.0676C18.5964 19.3349 18.4163 19.5923 18.1363 19.6418C17.5661 19.7507 17.066 19.7606 16.926 19.7606ZM14.9156 21.8C14.8756 21.8 14.8256 21.7901 14.7856 21.7802C13.1952 21.3446 12.155 20.7605 11.0648 19.7012C9.66452 18.3251 8.89437 16.4936 8.89437 14.5334C8.89437 12.9296 10.2746 11.6228 11.975 11.6228C13.6753 11.6228 15.0556 12.9296 15.0556 14.5334C15.0556 15.5927 15.9858 16.454 17.1361 16.454C18.2863 16.454 19.2165 15.5927 19.2165 14.5334C19.2165 10.8011 15.9658 7.7717 11.965 7.7717C9.12441 7.7717 6.52388 9.3359 5.35364 11.7614C4.96356 12.5633 4.76352 13.5038 4.76352 14.5334C4.76352 15.3056 4.83353 16.5233 5.43366 18.1073C5.53368 18.3647 5.40365 18.6518 5.1436 18.7409C4.88354 18.8399 4.59348 18.7013 4.50347 18.4538C4.01337 17.1569 3.77332 15.8699 3.77332 14.5334C3.77332 13.3454 4.00336 12.2663 4.45346 11.3258C5.78373 8.5637 8.73433 6.7718 11.965 6.7718C16.5159 6.7718 20.2167 10.2467 20.2167 14.5235C20.2167 16.1273 18.8364 17.4341 17.1361 17.4341C15.4357 17.4341 14.0554 16.1273 14.0554 14.5235C14.0554 13.4642 13.1252 12.6029 11.975 12.6029C10.8248 12.6029 9.89457 13.4642 9.89457 14.5235C9.89457 16.2164 10.5547 17.8004 11.765 18.9884C12.7151 19.919 13.6253 20.4338 15.0356 20.8199C15.3057 20.8892 15.4557 21.1664 15.3857 21.4238C15.3357 21.6515 15.1256 21.8 14.9156 21.8Z" fill="#171717"/>
</svg>
