<svg width="24" height="24" viewBox="0 0 24 24" fill="none" xmlns="http://www.w3.org/2000/svg">
<path fill-rule="evenodd" clip-rule="evenodd" d="M5 3C4.44771 3 4 3.44772 4 4L4 20C4 20.5523 4.44772 21 5 21C5.55229 21 6 20.5523 6 20L6 4C6 3.44772 5.55229 3 5 3ZM11.7071 15.7071C12.0976 15.3166 12.0976 14.6834 11.7071 14.2929L10.4142 13L18 13C18.5523 13 19 12.5523 19 12C19 11.4477 18.5523 11 18 11L10.4142 11L11.7071 9.70711C12.0976 9.31658 12.0976 8.68342 11.7071 8.29289C11.3166 7.90237 10.6834 7.90237 10.2929 8.29289L7.29399 11.2918C7.29062 11.2952 7.28728 11.2985 7.28396 11.3019C7.1089 11.4815 7.0008 11.7266 7 11.997C7 11.998 7 11.999 7 12C7 12.001 7 12.002 7 12.003C7.0004 12.1375 7.02735 12.2657 7.07588 12.3828C7.12468 12.5007 7.19702 12.6112 7.29289 12.7071L10.2929 15.7071C10.6834 16.0976 11.3166 16.0976 11.7071 15.7071Z" fill="#171717"/>
</svg>
