<svg width="24" height="24" viewBox="0 0 24 24" fill="none" xmlns="http://www.w3.org/2000/svg">
<path fill-rule="evenodd" clip-rule="evenodd" d="M19 3C19.5523 3 20 3.44772 20 4L20 20C20 20.5523 19.5523 21 19 21C18.4477 21 18 20.5523 18 20L18 4C18 3.44772 18.4477 3 19 3ZM12.2929 15.7071C11.9024 15.3166 11.9024 14.6834 12.2929 14.2929L13.5858 13L6 13C5.44772 13 5 12.5523 5 12C5 11.4477 5.44772 11 6 11L13.5858 11L12.2929 9.70711C11.9024 9.31658 11.9024 8.68342 12.2929 8.29289C12.6834 7.90237 13.3166 7.90237 13.7071 8.29289L16.706 11.2918C16.7094 11.2952 16.7127 11.2985 16.716 11.3019C16.8911 11.4815 16.9992 11.7266 17 11.997C17 11.998 17 11.999 17 12C17 12.001 17 12.002 17 12.003C16.9996 12.1375 16.9727 12.2657 16.9241 12.3828C16.8753 12.5007 16.803 12.6112 16.7071 12.7071L13.7071 15.7071C13.3166 16.0976 12.6834 16.0976 12.2929 15.7071Z" fill="#171717"/>
</svg>
