<svg width="24" height="24" viewBox="0 0 24 24" fill="none" xmlns="http://www.w3.org/2000/svg">
<path d="M12 21C16.9706 21 21 16.9706 21 12C21 7.02944 16.9706 3 12 3C7.02944 3 3 7.02944 3 12C3 16.9706 7.02944 21 12 21Z" stroke="#171717" stroke-width="1.5" stroke-linecap="round" stroke-linejoin="round"/>
<path d="M9.5 9.66915C9.70163 9.11262 10.0996 8.64334 10.6235 8.34442C11.1473 8.0455 11.7632 7.93623 12.3621 8.03596C12.9609 8.1357 13.5041 8.43801 13.8954 8.88934C14.2867 9.34067 14.5009 9.91191 14.5 10.5019C14.5 12.1673 11.9271 13 11.9271 13" stroke="#171717" stroke-width="1.5" stroke-linecap="round" stroke-linejoin="round"/>
<path d="M12 16.75H12.0125" stroke="#171717" stroke-width="2" stroke-linecap="round" stroke-linejoin="round"/>
</svg>
