<svg width="24" height="24" viewBox="0 0 24 24" fill="none" xmlns="http://www.w3.org/2000/svg">
<path d="M9.96419 12.2255L17.5387 7.19518L18.6917 8.40457L12.7341 15.1308L9.96419 12.2255ZM7.68623 12.6092L12.1201 17.2598C12.2118 17.3466 12.3219 17.4138 12.4429 17.457C12.5639 17.5002 12.6932 17.5184 12.8221 17.5103C12.951 17.5023 13.0767 17.4683 13.1908 17.4105C13.3049 17.3526 13.4049 17.2724 13.4841 17.1749L20.7688 8.95036C20.9139 8.79814 20.996 8.60071 20.9999 8.39491C21.0037 8.18912 20.929 7.98902 20.7896 7.83197L18.3328 5.25516C18.1821 5.10797 17.9805 5.01815 17.7655 5.00247C17.5505 4.98678 17.3369 5.04631 17.1645 5.16994L7.90286 11.3207C7.7938 11.3869 7.70067 11.4743 7.62965 11.5774C7.55862 11.6804 7.51131 11.7967 7.49083 11.9184C7.47036 12.0402 7.47719 12.1648 7.51087 12.2838C7.54455 12.4029 7.60432 12.5138 7.68623 12.6092ZM3 18.0926L8.49164 19L9.93767 17.7437L6.97656 14.6379L3 18.0926Z" fill="black"/>
</svg>
