<svg width="24" height="24" viewBox="0 0 24 24" fill="none" xmlns="http://www.w3.org/2000/svg">
<path fill-rule="evenodd" clip-rule="evenodd" d="M7.75 2C7.01142 2 6.30898 2.30205 5.79557 2.83013C5.28308 3.35726 5 4.06634 5 4.8V6.0625C5 6.61478 5.44772 7.0625 6 7.0625C6.55228 7.0625 7 6.61478 7 6.0625V4.8C7 4.57888 7.08566 4.37229 7.22956 4.22429C7.37252 4.07724 7.56032 4 7.75 4H13V10C13 10.5523 13.4477 11 14 11H19V19.2C19 19.4211 18.9143 19.6277 18.7704 19.7757C18.6275 19.9228 18.4397 20 18.25 20H7.75C7.56032 20 7.37252 19.9228 7.22956 19.7757C7.08566 19.6277 7 19.4211 7 19.2V17.9375C7 17.3852 6.55228 16.9375 6 16.9375C5.44772 16.9375 5 17.3852 5 17.9375V19.2C5 19.9337 5.28308 20.6427 5.79557 21.1699C6.30898 21.698 7.01142 22 7.75 22H18.25C18.9886 22 19.691 21.698 20.2044 21.1699C20.7169 20.6427 21 19.9337 21 19.2V10V9.3C21 9.03966 20.8985 8.78958 20.717 8.60292L14.592 2.30292C14.4037 2.10926 14.1451 2 13.875 2H7.75ZM18.3136 9L15 5.5917V9H18.3136ZM8.6364 8.3636C8.28493 8.01213 7.71508 8.01213 7.36361 8.3636C7.01214 8.71507 7.01214 9.28492 7.36361 9.63639L8.82721 11.1H3.00001C2.50295 11.1 2.10001 11.5029 2.10001 12C2.10001 12.4971 2.50295 12.9 3.00001 12.9H8.82721L7.36361 14.3636C7.01214 14.7151 7.01214 15.2849 7.36361 15.6364C7.71508 15.9879 8.28493 15.9879 8.6364 15.6364L11.6364 12.6364C11.9879 12.2849 11.9879 11.7151 11.6364 11.3636L8.6364 8.3636Z" fill="#171717"/>
</svg>
