<svg width="24" height="24" viewBox="0 0 24 24" fill="none" xmlns="http://www.w3.org/2000/svg">
<path d="M14.1818 8H16.3636C16.8412 8 17.314 8.10346 17.7552 8.30448C18.1964 8.5055 18.5973 8.80014 18.9349 9.17157C19.2726 9.54301 19.5405 9.98396 19.7232 10.4693C19.9059 10.9546 20 11.4747 20 12C20 12.5253 19.9059 13.0454 19.7232 13.5307C19.5405 14.016 19.2726 14.457 18.9349 14.8284C18.5973 15.1999 18.1964 15.4945 17.7552 15.6955C17.314 15.8965 16.8412 16 16.3636 16H14.1818M9.81818 16H7.63636C7.15883 16 6.68597 15.8965 6.24479 15.6955C5.8036 15.4945 5.40273 15.1999 5.06507 14.8284C4.38312 14.0783 4 13.0609 4 12C4 10.9391 4.38312 9.92172 5.06507 9.17157C5.74702 8.42143 6.67194 8 7.63636 8H9.81818" stroke="#171717" stroke-width="1.5" stroke-linecap="round" stroke-linejoin="round"/>
<path d="M9 12H15" stroke="#171717" stroke-width="1.5" stroke-linecap="round" stroke-linejoin="round"/>
</svg>
