<svg width="24" height="24" viewBox="0 0 24 24" fill="none" xmlns="http://www.w3.org/2000/svg">
<path d="M9 7H19" stroke="#171717" stroke-width="1.5" stroke-linecap="round" stroke-linejoin="round"/>
<path d="M9 12H19" stroke="#171717" stroke-width="1.5" stroke-linecap="round" stroke-linejoin="round"/>
<path d="M9 17H19" stroke="#171717" stroke-width="1.5" stroke-linecap="round" stroke-linejoin="round"/>
<path d="M4.92483 6.56297L4.92687 6.50461C4.92799 6.47383 4.8866 6.4572 4.86483 6.47897L4.69957 6.61927C4.61213 6.69071 4.48322 6.67713 4.41259 6.58905C4.34253 6.50168 4.3564 6.3741 4.44359 6.30383L4.90728 5.93014C4.96523 5.88344 5.03741 5.85797 5.11184 5.85797C5.29188 5.85797 5.43783 6.00392 5.43783 6.18396V7.74197C5.43783 7.88446 5.32232 7.99997 5.17983 7.99997C5.03734 7.99997 4.92183 7.88446 4.92183 7.74197V6.84497V6.72797C4.92183 6.67597 4.92283 6.62097 4.92483 6.56297ZM4.92483 6.56297L4.88485 6.56159M4.92483 6.56297L4.88485 6.56164L4.88485 6.56159M4.88485 6.56159L4.88653 6.51339M4.88485 6.56159C4.88284 6.62 4.88183 6.67546 4.88183 6.72797V6.72826V6.72856V6.72885V6.72914V6.72943V6.72972V6.73002V6.73031V6.7306V6.73089V6.73118V6.73147V6.73176V6.73205V6.73234V6.73263V6.73292V6.7332V6.73349V6.73378V6.73407V6.73436V6.73464V6.73493V6.73522V6.7355V6.73579V6.73608V6.73636V6.73665V6.73693V6.73722V6.7375V6.73779V6.73807V6.73835V6.73864V6.73892V6.73921V6.73949V6.73977V6.74005V6.74034V6.74062V6.7409V6.74118V6.74146V6.74174V6.74202V6.7423V6.74259V6.74287V6.74314V6.74342V6.7437V6.74398V6.74426V6.74454V6.74482V6.7451V6.74537V6.74565V6.74593V6.74621V6.74648V6.74676V6.74704V6.74731V6.74759V6.74786V6.74814V6.74841V6.74869V6.74896V6.74924V6.74951V6.74978V6.75006V6.75033V6.7506V6.75088V6.75115V6.75142V6.75169V6.75196V6.75224V6.75251V6.75278V6.75305V6.75332V6.75359V6.75386V6.75413V6.7544V6.75467V6.75494V6.7552V6.75547V6.75574V6.75601V6.75628V6.75654V6.75681V6.75708V6.75735V6.75761V6.75788V6.75814V6.75841V6.75867V6.75894V6.7592V6.75947V6.75973V6.76V6.76026V6.76053V6.76079V6.76105V6.76131V6.76158V6.76184V6.7621V6.76236V6.76263V6.76289V6.76315V6.76341V6.76367V6.76393V6.76419V6.76445V6.76471V6.76497V6.76523V6.76549V6.76575V6.766V6.76626V6.76652V6.76678V6.76703V6.76729V6.76755V6.7678V6.76806V6.76832V6.76857V6.76883V6.76908V6.76934V6.76959V6.76985V6.7701V6.77036V6.77061V6.77086V6.77112V6.77137V6.77162V6.77188V6.77213V6.77238V6.77263V6.77288V6.77314V6.77339V6.77364V6.77389V6.77414V6.77439V6.77464V6.77489V6.77514V6.77539V6.77563V6.77588V6.77613V6.77638V6.77663V6.77687V6.77712V6.77737V6.77762V6.77786V6.77811V6.77835V6.7786V6.77885V6.77909V6.77934V6.77958V6.77983V6.78007V6.78031V6.78056V6.7808V6.78104V6.78129V6.78153V6.78177V6.78201V6.78226V6.7825V6.78274V6.78298V6.78322V6.78346V6.7837V6.78394V6.78418V6.78442V6.78466V6.7849V6.78514V6.78538V6.78562V6.78586V6.78609V6.78633V6.78657V6.78681V6.78704V6.78728V6.78752V6.78775V6.78799V6.78822V6.78846V6.78869V6.78893V6.78916V6.7894V6.78963V6.78987V6.7901V6.79033V6.79057V6.7908V6.79103V6.79127V6.7915V6.79173V6.79196V6.79219V6.79242V6.79265V6.79289V6.79312V6.79335V6.79358V6.79381V6.79403V6.79426V6.79449V6.79472V6.79495V6.79518V6.79541V6.79563V6.79586V6.79609V6.79631V6.79654V6.79677V6.79699V6.79722V6.79745V6.79767V6.7979V6.79812V6.79835V6.79857V6.79879V6.79902V6.79924V6.79946V6.79969V6.79991V6.80013V6.80036V6.80058V6.8008V6.80102V6.80124V6.80146V6.80168V6.8019V6.80213V6.80235V6.80257V6.80278V6.803V6.80322V6.80344V6.80366V6.80388V6.8041V6.80431V6.80453V6.80475V6.80497V6.80518V6.8054V6.80562V6.80583V6.80605V6.80626V6.80648V6.80669V6.80691V6.80712V6.80734V6.80755V6.80777V6.80798V6.80819V6.80841V6.80862V6.80883V6.80904V6.80925V6.80947V6.80968V6.80989V6.8101V6.81031V6.81052V6.81073V6.81094V6.81115V6.81136V6.81157V6.81178V6.81199V6.8122V6.81241V6.81261V6.81282V6.81303V6.81324V6.81344V6.81365V6.81386V6.81406V6.81427V6.81447V6.81468V6.81488V6.81509V6.81529V6.8155V6.8157V6.81591V6.81611V6.81631V6.81652V6.81672V6.81692V6.81713V6.81733V6.81753V6.81773V6.81793V6.81813V6.81833V6.81854V6.81874V6.81894V6.81914V6.81934V6.81954V6.81973V6.81993V6.82013V6.82033V6.82053V6.82073V6.82092V6.82112V6.82132V6.82152V6.82171V6.82191V6.8221V6.8223V6.8225V6.82269V6.82289V6.82308V6.82328V6.82347V6.82367V6.82386V6.82405V6.82425V6.82444V6.82463V6.82482V6.82502V6.82521V6.8254V6.82559V6.82578V6.82598V6.82617V6.82636V6.82655V6.82674V6.82693V6.82712V6.82731V6.8275V6.82768V6.82787V6.82806V6.82825V6.82844V6.82862V6.82881V6.829V6.82919V6.82937V6.82956V6.82974V6.82993V6.83012V6.8303V6.83049V6.83067V6.83086V6.83104V6.83122V6.83141V6.83159V6.83178V6.83196V6.83214V6.83232V6.83251V6.83269V6.83287V6.83305V6.83323V6.83341V6.83359V6.83378V6.83396V6.83414V6.83432V6.8345V6.83467V6.83485V6.83503V6.83521V6.83539V6.83557V6.83574V6.83592V6.8361V6.83628V6.83645V6.83663V6.83681V6.83698V6.83716V6.83733V6.83751V6.83768V6.83786V6.83803V6.83821V6.83838V6.83856V6.83873V6.8389V6.83907V6.83925V6.83942V6.83959V6.83976V6.83994V6.84011V6.84028V6.84045V6.84062V6.84079V6.84096V6.84113V6.8413V6.84147V6.84164V6.84181V6.84198V6.84215V6.84231V6.84248V6.84265V6.84282V6.84298V6.84315V6.84332V6.84348V6.84365V6.84382V6.84398V6.84415V6.84431V6.84448V6.84464V6.84481V6.84497V7.74197C4.88183 7.90655 5.01525 8.03997 5.17983 8.03997C5.34441 8.03997 5.47783 7.90655 5.47783 7.74197V6.18396C5.47783 5.98183 5.31397 5.81797 5.11184 5.81797C5.02828 5.81797 4.94724 5.84656 4.88218 5.89899L4.41849 6.27268C4.31413 6.35679 4.29753 6.5095 4.38138 6.61407C4.46593 6.7195 4.62023 6.73575 4.72488 6.65024L4.81214 6.57895L4.81214 6.57895L4.81244 6.5787C4.83549 6.55949 4.86019 6.5377 4.88653 6.51339M4.88653 6.51339C4.88836 6.5117 4.8902 6.51 4.89205 6.50828L4.89206 6.5083L4.89311 6.50726C4.89272 6.50765 4.89233 6.50796 4.89197 6.5082C4.89071 6.50904 4.88967 6.50907 4.88921 6.50903C4.88904 6.5089 4.88877 6.50864 4.88844 6.50819C4.88752 6.50693 4.88683 6.50501 4.88689 6.50317L4.88653 6.51339Z" fill="#171717" stroke="#171717" stroke-width="0.08"/>
<path d="M5.12605 11.6351L5.12605 11.6351L5.12579 11.6357C5.10207 11.6849 5.05977 11.7447 4.99693 11.8154C4.93348 11.8868 4.84795 11.9783 4.74021 12.0901L4.28004 12.5554C4.22737 12.6087 4.19783 12.6806 4.19783 12.7555C4.19783 12.9126 4.32521 13.04 4.48235 13.04H5.54883C5.68856 13.04 5.80183 12.9267 5.80183 12.787C5.80183 12.6473 5.68856 12.534 5.54883 12.534H4.96889L5.1349 12.3815L5.13496 12.3814C5.26545 12.2609 5.37617 12.1523 5.46701 12.0554C5.55929 11.9569 5.62992 11.8565 5.67804 11.754C5.7268 11.6501 5.75083 11.5352 5.75083 11.41C5.75083 11.2909 5.71991 11.1841 5.65729 11.0911C5.59696 10.9965 5.51119 10.9229 5.40158 10.8702C5.29278 10.8148 5.16337 10.788 5.01483 10.788C4.87804 10.788 4.75955 10.8043 4.6603 10.838C4.56313 10.8691 4.47657 10.9107 4.40101 10.9631L4.42383 10.996L4.40121 10.963C4.39014 10.9706 4.37918 10.9783 4.3683 10.9861C4.25043 11.0705 4.24346 11.2343 4.33358 11.3399C4.42681 11.4492 4.58505 11.4562 4.70069 11.3849C4.72209 11.3717 4.74289 11.36 4.7631 11.3496C4.83216 11.3141 4.89994 11.297 4.96683 11.297C5.0298 11.297 5.07718 11.3131 5.1125 11.342L5.11249 11.342L5.11337 11.3427C5.14428 11.3665 5.16383 11.4075 5.16383 11.476C5.16383 11.5317 5.1513 11.5846 5.12605 11.6351Z" fill="#171717" stroke="#171717" stroke-width="0.08"/>
<path d="M5.47481 16.8034L5.47482 16.8034L5.47547 16.803C5.55025 16.7517 5.61036 16.6874 5.6554 16.6102C5.70162 16.5309 5.72384 16.4377 5.72384 16.332C5.72384 16.1612 5.65364 16.0258 5.51468 15.9302C5.37773 15.8339 5.19475 15.788 4.96984 15.788C4.79701 15.788 4.65007 15.8093 4.53031 15.8534C4.48618 15.8689 4.44399 15.8858 4.40376 15.9044C4.27433 15.9639 4.24889 16.122 4.32145 16.2332L4.36782 16.3043C4.41744 16.3804 4.51732 16.4005 4.59473 16.3618C4.6366 16.3408 4.68466 16.3216 4.73909 16.3041C4.79068 16.2875 4.8475 16.279 4.90984 16.279C4.99772 16.279 5.05626 16.2964 5.09219 16.3245C5.12685 16.3516 5.14584 16.391 5.14584 16.449C5.14584 16.4915 5.13497 16.5287 5.11357 16.5618C5.09458 16.5893 5.0572 16.6153 4.99353 16.6359L4.99353 16.6359L4.9932 16.6361C4.93324 16.656 4.84427 16.667 4.72384 16.667C4.61891 16.667 4.53384 16.7521 4.53384 16.857V16.947C4.53384 17.0503 4.61757 17.134 4.72084 17.134C4.84955 17.134 4.94519 17.144 5.00986 17.1625C5.0757 17.1813 5.11506 17.2068 5.13564 17.2347C5.15787 17.2649 5.16984 17.3023 5.16984 17.349C5.16984 17.4268 5.14392 17.4825 5.09486 17.5218L5.09485 17.5218L5.09434 17.5222C5.0479 17.5606 4.95552 17.585 4.80484 17.585C4.72428 17.585 4.63521 17.5744 4.53744 17.5529L4.53468 17.5522L4.52505 17.5911L4.53468 17.5522C4.45571 17.5326 4.37317 17.5496 4.31009 17.5917C4.24666 17.634 4.20084 17.7033 4.20084 17.7884C4.20084 17.8792 4.25546 17.965 4.34568 17.9939C4.40276 18.0122 4.4612 18.0273 4.521 18.0392C4.6241 18.0598 4.7398 18.07 4.86784 18.07C5.07503 18.07 5.24705 18.0416 5.38188 17.9827L5.38214 17.9825C5.51769 17.9221 5.62056 17.8394 5.68765 17.7334L5.68784 17.7331C5.75385 17.6266 5.78684 17.5093 5.78684 17.382C5.78684 17.227 5.73761 17.1005 5.63598 17.0076C5.56479 16.9412 5.47167 16.8946 5.35851 16.8661C5.39948 16.8483 5.43826 16.8275 5.47481 16.8034Z" fill="#171717" stroke="#171717" stroke-width="0.08"/>
</svg>
