<svg width="24" height="24" viewBox="0 0 24 24" fill="none" xmlns="http://www.w3.org/2000/svg">
<path fill-rule="evenodd" clip-rule="evenodd" d="M7.5 7.5C7.5 5.01472 9.51472 3 12 3C14.4853 3 16.5 5.01472 16.5 7.5V8.26679C16.8002 8.27851 17.0768 8.2984 17.3278 8.33215C17.9833 8.42028 18.6117 8.61902 19.1213 9.12868C19.631 9.63835 19.8297 10.2667 19.9179 10.9222C20.0001 11.5339 20.0001 12.2977 20 13.1842V13.8206C20 15.1747 20.0001 16.2913 19.8813 17.1751C19.7565 18.1029 19.4845 18.9223 18.8284 19.5784C18.1723 20.2345 17.3529 20.5065 16.4251 20.6313C15.5413 20.7501 14.4247 20.75 13.0706 20.75H10.9294C9.57531 20.75 8.4587 20.7501 7.57494 20.6313C6.64711 20.5065 5.82769 20.2345 5.17158 19.5784C4.51547 18.9223 4.2435 18.1029 4.11876 17.1751C3.99994 16.2913 3.99997 15.1747 4 13.8206L4 13.25L4 13.1842C3.99995 12.2977 3.99991 11.5339 4.08215 10.9222C4.17028 10.2667 4.36902 9.63835 4.87868 9.12868C5.38835 8.61902 6.0167 8.42028 6.67221 8.33215C6.9232 8.2984 7.19981 8.27851 7.5 8.26679V7.5ZM14.5 7.5V8.25L9.5 8.25V7.5C9.5 6.11929 10.6193 5 12 5C13.3807 5 14.5 6.11929 14.5 7.5ZM6.93871 10.3143C6.50497 10.3726 6.36902 10.4668 6.2929 10.5429C6.21677 10.619 6.12263 10.755 6.06431 11.1887C6.00213 11.6512 6 12.2789 6 13.25V13.75C6 15.1925 6.00213 16.1738 6.10092 16.9086C6.19585 17.6146 6.36322 17.9416 6.58579 18.1642C6.80836 18.3868 7.13538 18.5542 7.84144 18.6491C8.57626 18.7479 9.55752 18.75 11 18.75H13C14.4425 18.75 15.4238 18.7479 16.1586 18.6491C16.8646 18.5542 17.1916 18.3868 17.4142 18.1642C17.6368 17.9416 17.8042 17.6146 17.8991 16.9086C17.9979 16.1738 18 15.1925 18 13.75V13.25C18 12.2789 17.9979 11.6512 17.9357 11.1887C17.8774 10.755 17.7832 10.619 17.7071 10.5429C17.631 10.4668 17.495 10.3726 17.0613 10.3143C16.5988 10.2521 15.9711 10.25 15 10.25H9C8.02893 10.25 7.40122 10.2521 6.93871 10.3143ZM12 16.25C12.9665 16.25 13.75 15.4665 13.75 14.5C13.75 13.5335 12.9665 12.75 12 12.75C11.0335 12.75 10.25 13.5335 10.25 14.5C10.25 15.4665 11.0335 16.25 12 16.25Z" fill="#171717"/>
</svg>
