<svg width="24" height="24" viewBox="0 0 24 24" fill="none" xmlns="http://www.w3.org/2000/svg">
<path d="M8.44444 4V6.66667C8.44444 7.13816 8.25714 7.59035 7.92375 7.92375C7.59035 8.25714 7.13816 8.44444 6.66667 8.44444H4M20 8.44444H17.3333C16.8618 8.44444 16.4097 8.25714 16.0763 7.92375C15.7429 7.59035 15.5556 7.13816 15.5556 6.66667V4M15.5556 20V17.3333C15.5556 16.8618 15.7429 16.4097 16.0763 16.0763C16.4097 15.7429 16.8618 15.5556 17.3333 15.5556H20M4 15.5556H6.66667C7.13816 15.5556 7.59035 15.7429 7.92375 16.0763C8.25714 16.4097 8.44444 16.8618 8.44444 17.3333V20" stroke="#171717" stroke-width="1.5" stroke-linecap="round" stroke-linejoin="round"/>
</svg>
