<svg width="24" height="24" viewBox="0 0 24 24" fill="none" xmlns="http://www.w3.org/2000/svg">
<path d="M19 11.032L11.9083 17.7203C11.0396 18.5397 9.86124 19 8.6326 19C7.40396 19 6.22564 18.5397 5.35686 17.7203C4.48808 16.9009 4 15.7896 4 14.6309C4 13.4721 4.48808 12.3608 5.35686 11.5414L12.4485 4.85312C13.0277 4.30688 13.8132 4 14.6323 4C15.4514 4 16.237 4.30688 16.8162 4.85312C17.3954 5.39937 17.7207 6.14024 17.7207 6.91275C17.7207 7.68526 17.3954 8.42613 16.8162 8.97237L9.7168 15.6607C9.4272 15.9338 9.03443 16.0873 8.62488 16.0873C8.21534 16.0873 7.82256 15.9338 7.53297 15.6607C7.24338 15.3876 7.08068 15.0171 7.08068 14.6309C7.08068 14.2446 7.24338 13.8742 7.53297 13.6011L14.0845 7.42947" stroke="#171717" stroke-width="1.5" stroke-linecap="round" stroke-linejoin="round"/>
</svg>
