<svg width="24" height="24" viewBox="0 0 24 24" fill="none" xmlns="http://www.w3.org/2000/svg">
<path fill-rule="evenodd" clip-rule="evenodd" d="M7.00059 4.41482C5.48458 5.99101 5.32965 8.43956 6.64699 10.196L7.82856 11.7714C9.07935 13.4392 10.5608 14.9206 12.2286 16.1714L13.804 17.353C15.5604 18.6703 18.009 18.5154 19.5852 16.9994L17 14.4142L15.9788 15.4354C15.5122 15.902 14.7993 16.0177 14.209 15.7226C11.6422 14.4391 9.56085 12.3578 8.27742 9.79095C7.98229 9.20069 8.09798 8.4878 8.56462 8.02115L9.58577 7L7.00059 4.41482ZM5.64811 2.93767C6.39473 2.19105 7.60524 2.19104 8.35186 2.93767L11 5.58579C11.781 6.36684 11.781 7.63317 11 8.41422L10.2205 9.19375C11.2663 11.1388 12.8612 12.7337 14.8062 13.7795L15.5858 13C16.3668 12.219 17.6331 12.219 18.4142 13L21.0623 15.6481C21.8089 16.3947 21.8089 17.6053 21.0623 18.3519C18.7852 20.629 15.1802 20.8852 12.604 18.953L11.0286 17.7714C9.20922 16.4069 7.59306 14.7908 6.22856 12.9714L5.04699 11.396C3.1148 8.81976 3.371 5.21478 5.64811 2.93767Z" fill="#171717"/>
</svg>
