<svg width="24" height="24" viewBox="0 0 24 24" fill="none" xmlns="http://www.w3.org/2000/svg">
<path d="M19 15.2216C18.5033 16.3991 17.7263 17.4367 16.7371 18.2437C15.7478 19.0507 14.5764 19.6025 13.3253 19.8509C12.0741 20.0992 10.7813 20.0366 9.55992 19.6685C8.33849 19.3004 7.22562 18.638 6.31861 17.7391C5.41159 16.8403 4.73805 15.7325 4.35687 14.5125C3.97568 13.2924 3.89846 11.9974 4.13196 10.7405C4.36546 9.48371 4.90256 8.30333 5.69631 7.30262C6.49006 6.30191 7.51629 5.51133 8.68528 5" stroke="#171717" stroke-width="1.5" stroke-linecap="round" stroke-linejoin="round"/>
<path d="M20 12C20 10.9494 19.7931 9.90914 19.391 8.93853C18.989 7.96793 18.3997 7.08601 17.6569 6.34315C16.914 5.60028 16.0321 5.011 15.0615 4.60896C14.0909 4.20693 13.0506 4 12 4V12H20Z" stroke="#171717" stroke-width="1.5" stroke-linecap="round" stroke-linejoin="round"/>
</svg>
