<svg width="24" height="24" viewBox="0 0 24 24" fill="none" xmlns="http://www.w3.org/2000/svg">
<path fill-rule="evenodd" clip-rule="evenodd" d="M12 5C8.68629 5 6 7.68629 6 11C6 13.1458 7.09211 14.9159 8.45503 16.2906C9.77773 17.6248 11.2766 18.5032 12 18.8837C12.7234 18.5032 14.2223 17.6248 15.545 16.2906C16.9079 14.9159 18 13.1458 18 11C18 7.68629 15.3137 5 12 5ZM4 11C4 6.58172 7.58172 3 12 3C16.4183 3 20 6.58172 20 11C20 13.8706 18.5326 16.1178 16.9653 17.6987C15.397 19.2805 13.6448 20.2838 12.8585 20.6917C12.3169 20.9726 11.6831 20.9726 11.1415 20.6917C10.3552 20.2838 8.60299 19.2805 7.03474 17.6987C5.46741 16.1178 4 13.8706 4 11ZM12 9C10.8954 9 10 9.89543 10 11C10 12.1046 10.8954 13 12 13C13.1046 13 14 12.1046 14 11C14 9.89543 13.1046 9 12 9ZM8 11C8 8.79086 9.79086 7 12 7C14.2091 7 16 8.79086 16 11C16 13.2091 14.2091 15 12 15C9.79086 15 8 13.2091 8 11Z" fill="#171717"/>
</svg>
