<svg width="24" height="24" viewBox="0 0 24 24" fill="none" xmlns="http://www.w3.org/2000/svg">
<path d="M4.5 10.5C4.5 8.61438 4.5 7.67157 5.08579 7.08579C5.67157 6.5 6.61438 6.5 8.5 6.5H15.5C17.3856 6.5 18.3284 6.5 18.9142 7.08579C19.5 7.67157 19.5 8.61438 19.5 10.5V12.125V13.75C19.5 15.6356 19.5 16.5784 18.9142 17.1642C18.3284 17.75 17.3856 17.75 15.5 17.75H12H8.5C6.61438 17.75 5.67157 17.75 5.08579 17.1642C4.5 16.5784 4.5 15.6356 4.5 13.75V10.5Z" fill="#fff" stroke="#fff" stroke-width="1.5"/>
<path d="M18.0938 10.0156L12.8944 12.6153C12.3314 12.8968 11.6686 12.8968 11.1056 12.6153L5.90625 10.0156" stroke="white" stroke-width="1.5" stroke-linecap="round"/>
</svg>
