<svg width="24" height="24" viewBox="0 0 24 24" fill="none" xmlns="http://www.w3.org/2000/svg">
<path d="M20 13V10C20 8.11438 20 7.17157 19.4142 6.58579C18.8284 6 17.8856 6 16 6H8C6.11438 6 5.17157 6 4.58579 6.58579C4 7.17157 4 8.11438 4 10V14C4 15.8856 4 16.8284 4.58579 17.4142C5.17157 18 6.11438 18 8 18H12" stroke="#171717" stroke-width="1.5" stroke-linecap="round"/>
<path d="M4 9.2002L11.1056 12.753C11.6686 13.0345 12.3314 13.0345 12.8944 12.753L20 9.2002" stroke="#171717" stroke-width="1.5" stroke-linecap="round"/>
<path d="M18 19L20 17L18 15" stroke="#171717" stroke-width="1.5" stroke-linecap="round" stroke-linejoin="round"/>
<path d="M20 17H14.5" stroke="#171717" stroke-width="1.5" stroke-linecap="round" stroke-linejoin="round"/>
</svg>
