<svg width="24" height="24" viewBox="0 0 24 24" fill="none" xmlns="http://www.w3.org/2000/svg">
<path fill-rule="evenodd" clip-rule="evenodd" d="M6.29707 15.0128C7.0929 14.3496 8.13908 14 9.2 14H14.8C15.8609 14 16.9071 14.3496 17.7029 15.0128C18.5041 15.6805 19 16.6292 19 17.6667V19C19 19.5523 18.5523 20 18 20C17.4477 20 17 19.5523 17 19V17.6667C17 17.2896 16.8216 16.8818 16.4226 16.5493C16.0182 16.2123 15.4365 16 14.8 16H9.2C8.56354 16 7.98185 16.2123 7.57744 16.5493C7.17836 16.8818 7 17.2896 7 17.6667V19C7 19.5523 6.55228 20 6 20C5.44772 20 5 19.5523 5 19V17.6667C5 16.6292 5.49593 15.6805 6.29707 15.0128Z" fill="#171717"/>
<path fill-rule="evenodd" clip-rule="evenodd" d="M12 6C10.8954 6 10 6.89543 10 8C10 9.10457 10.8954 10 12 10C13.1046 10 14 9.10457 14 8C14 6.89543 13.1046 6 12 6ZM8 8C8 5.79086 9.79086 4 12 4C14.2091 4 16 5.79086 16 8C16 10.2091 14.2091 12 12 12C9.79086 12 8 10.2091 8 8Z" fill="#171717"/>
</svg>
