<svg width="20" height="20" viewBox="0 0 20 20" fill="none" xmlns="http://www.w3.org/2000/svg">
<rect x="0.25" y="0.25" width="19.5" height="19.5" rx="9.75" fill="white"/>
<rect x="0.25" y="0.25" width="19.5" height="19.5" rx="9.75" stroke="#EF1111" stroke-width="0.5"/>
<path fill-rule="evenodd" clip-rule="evenodd" d="M10 5C8.34315 5 7 6.34315 7 8C7 9.65685 8.34315 11 10 11C11.6569 11 13 9.65685 13 8C13 6.34315 11.6569 5 10 5ZM6 8C6 5.79086 7.79086 4 10 4C12.2091 4 14 5.79086 14 8C14 10.2091 12.2091 12 10 12C7.79086 12 6 10.2091 6 8Z" fill="#EF1111" stroke="#EF1111" stroke-width="0.2" stroke-linecap="round" stroke-linejoin="round"/>
<path fill-rule="evenodd" clip-rule="evenodd" d="M12.0338 10.6712C12.3379 10.6364 12.6172 10.821 12.6576 11.0836L13.3298 15.4576C13.3579 15.6402 13.2624 15.8205 13.0841 15.9216C12.9058 16.0227 12.6762 16.0267 12.4932 15.932L10.0013 14.6412L7.50937 15.932C7.32644 16.0267 7.09682 16.0227 6.91852 15.9216C6.74022 15.8205 6.64473 15.6401 6.67282 15.4576L7.34504 11.0883C7.38544 10.8257 7.66475 10.6411 7.9689 10.676C8.27305 10.7109 8.48687 10.952 8.44647 11.2146L7.926 14.5975L9.71547 13.6706C9.89141 13.5795 10.1112 13.5795 10.2871 13.6706L12.0768 14.5976L11.5561 11.2097C11.5158 10.9472 11.7296 10.7061 12.0338 10.6712Z" fill="#EF1111" stroke="#EF1111" stroke-width="0.2" stroke-linecap="round" stroke-linejoin="round"/>
</svg>
