<svg width="24" height="24" viewBox="0 0 24 24" fill="none" xmlns="http://www.w3.org/2000/svg">
<g clip-path="url(#clip0_11066_193111)">
<path d="M6.19336 16.9199C6.19336 16.3994 6.52344 16.0439 6.99316 16.0439C7.4375 16.0439 7.74219 16.2852 8.12305 16.9199C8.93555 18.4561 10.3828 19.2559 12.4521 19.2559C14.9912 19.2559 16.5908 18.0498 16.5908 16.1201C16.5908 14.5078 15.626 13.5303 13.4297 12.9336L10.6367 12.1719C7.90723 11.4229 6.54883 9.9375 6.54883 7.67773C6.54883 4.75781 8.87207 2.81543 12.3379 2.81543C14.0137 2.81543 15.5244 3.29785 16.5781 4.17383C17.4668 4.92285 17.9873 5.8623 17.9873 6.72559C17.9873 7.2207 17.6826 7.55078 17.2002 7.55078C16.7559 7.55078 16.4766 7.36035 16.3242 6.91602C15.8418 5.39258 14.3057 4.42773 12.376 4.42773C9.96387 4.42773 8.41504 5.65918 8.41504 7.56348C8.41504 9.01074 9.30371 9.97559 11.1318 10.4707L13.8613 11.2324C17.0479 12.1084 18.3936 13.5049 18.3936 15.9297C18.3936 18.9766 16.0449 20.8809 12.3379 20.8809C10.4463 20.8809 8.7832 20.373 7.72949 19.4717C6.76465 18.6592 6.19336 17.7197 6.19336 16.9199Z" fill="#171717"/>
<path d="M3 12L21 12" stroke="#171717" stroke-width="1.5" stroke-linecap="round" stroke-linejoin="round"/>
</g>
<defs>
<clipPath id="clip0_11066_193111">
<rect width="24" height="24" fill="white"/>
</clipPath>
</defs>
</svg>
