<svg width="24" height="24" viewBox="0 0 24 24" fill="none" xmlns="http://www.w3.org/2000/svg">
<path d="M15.6863 7.31372L4.99999 18" stroke="#171717" stroke-width="1.5" stroke-linecap="round" stroke-linejoin="round"/>
<path d="M5 7.31372L15.6863 18" stroke="#171717" stroke-width="1.5" stroke-linecap="round" stroke-linejoin="round"/>
<path d="M21 20.04H21.04V20V19.2155V19.1755H21H19.3581L19.7488 18.8369L19.7489 18.8368C20.0033 18.6154 20.2189 18.4158 20.3956 18.2381C20.5737 18.059 20.7093 17.877 20.8014 17.6919C20.8943 17.5053 20.9404 17.2984 20.9404 17.0718C20.9404 16.8579 20.8815 16.6675 20.7633 16.502C20.6493 16.3333 20.4872 16.202 20.2786 16.1074C20.0728 16.0086 19.8265 15.96 19.541 15.96C19.2767 15.96 19.0498 15.9897 18.8612 16.0502C18.6746 16.1064 18.509 16.1815 18.3649 16.2759C18.2268 16.3652 18.0965 16.462 17.9741 16.5662L17.9427 16.593L17.9703 16.6235L18.5153 17.2257L18.5404 17.2535L18.5697 17.2303C18.7361 17.0989 18.8899 16.9994 19.0311 16.931C19.1708 16.8634 19.3094 16.8301 19.4473 16.8301C19.5775 16.8301 19.6795 16.8615 19.7568 16.9212L19.7568 16.9212L19.7577 16.9218C19.8302 16.9746 19.8702 17.0618 19.8702 17.1934C19.8702 17.3009 19.8445 17.4031 19.7928 17.5006L19.7928 17.5006L19.7925 17.5011C19.7442 17.5958 19.6592 17.7086 19.5353 17.84C19.4109 17.972 19.2434 18.1409 19.0328 18.3469C19.0327 18.347 19.0326 18.347 19.0326 18.3471L17.9958 19.3357L17.9834 19.3475V19.3646V20V20.04H18.0234H21Z" fill="#171717" stroke="#171717" stroke-width="0.08"/>
</svg>
