<svg width="24" height="24" viewBox="0 0 24 24" fill="none" xmlns="http://www.w3.org/2000/svg">
<path d="M15.6863 7.31372L4.99999 18" stroke="#171717" stroke-width="1.5" stroke-linecap="round" stroke-linejoin="round"/>
<path d="M5 7.31372L15.6863 18" stroke="#171717" stroke-width="1.5" stroke-linecap="round" stroke-linejoin="round"/>
<path d="M21 9.04H21.04V9V8.21547V8.17547H21H19.3581L19.7488 7.83686L19.7489 7.8368C20.0033 7.61538 20.2189 7.41581 20.3956 7.23815C20.5737 7.059 20.7093 6.87696 20.8014 6.69186C20.8943 6.50532 20.9404 6.2984 20.9404 6.07182C20.9404 5.85793 20.8815 5.66752 20.7633 5.50204C20.6493 5.33334 20.4872 5.202 20.2786 5.1074C20.0728 5.00856 19.8265 4.96 19.541 4.96C19.2767 4.96 19.0498 4.98971 18.8612 5.0502C18.6746 5.10638 18.509 5.1815 18.3649 5.27586C18.2268 5.36517 18.0965 5.46196 17.9741 5.56623L17.9427 5.59296L17.9703 5.62352L18.5153 6.22573L18.5404 6.25346L18.5697 6.23029C18.7361 6.09894 18.8899 5.99941 19.0311 5.93103C19.1708 5.86338 19.3094 5.83006 19.4473 5.83006C19.5775 5.83006 19.6795 5.86155 19.7568 5.92117L19.7568 5.92119L19.7577 5.92183C19.8302 5.97464 19.8702 6.06176 19.8702 6.19337C19.8702 6.30087 19.8445 6.4031 19.7928 6.5006L19.7928 6.5006L19.7925 6.50115C19.7442 6.59577 19.6592 6.70862 19.5353 6.83997C19.4109 6.97197 19.2434 7.14092 19.0328 7.34692C19.0327 7.34698 19.0326 7.34704 19.0326 7.34709L17.9958 8.33569L17.9834 8.34751V8.36464V9V9.04H18.0234H21Z" fill="#171717" stroke="#171717" stroke-width="0.08"/>
</svg>
