<svg width="24" height="24" viewBox="0 0 24 24" fill="none" xmlns="http://www.w3.org/2000/svg">
<path fill-rule="evenodd" clip-rule="evenodd" d="M12 21C16.9706 21 21 16.9706 21 12C21 7.02944 16.9706 3 12 3C7.02944 3 3 7.02944 3 12C3 16.9706 7.02944 21 12 21ZM16.5529 9.5068C16.8328 9.20146 16.8121 8.72703 16.5068 8.44714C16.2015 8.16724 15.727 8.18787 15.4471 8.49321L10.5 13.8901L8.55287 11.7659C8.27297 11.4606 7.79855 11.44 7.49321 11.7199C7.18787 11.9998 7.16724 12.4742 7.44713 12.7795L9.94713 15.5068C10.0892 15.6618 10.2898 15.75 10.5 15.75C10.7102 15.75 10.9108 15.6618 11.0529 15.5068L16.5529 9.5068Z" fill="#0A52C6"/>
</svg>
