<svg width="24" height="24" viewBox="0 0 24 24" fill="none" xmlns="http://www.w3.org/2000/svg">
<path d="M15 18V16.6667C15 15.9594 14.6629 15.2811 14.0627 14.781C13.4626 14.281 12.6487 14 11.8 14H6.2C5.35131 14 4.53737 14.281 3.93726 14.781C3.33714 15.2811 3 15.9594 3 16.6667V18" stroke="#171717" stroke-width="2" stroke-linecap="round" stroke-linejoin="round"/>
<path d="M9 10C10.6569 10 12 8.65685 12 7C12 5.34315 10.6569 4 9 4C7.34315 4 6 5.34315 6 7C6 8.65685 7.34315 10 9 10Z" stroke="#171717" stroke-width="2" stroke-linecap="round" stroke-linejoin="round"/>
<path d="M16 10.5L17.6667 12L21 9" stroke="#171717" stroke-width="2" stroke-linecap="round" stroke-linejoin="round"/>
</svg>
