<svg width="24" height="24" viewBox="0 0 24 24" fill="none" xmlns="http://www.w3.org/2000/svg">
<path fill-rule="evenodd" clip-rule="evenodd" d="M7 8C7 6.34315 8.34315 5 10 5C11.6569 5 13 6.34315 13 8C13 9.65685 11.6569 11 10 11C8.34315 11 7 9.65685 7 8ZM10 3C7.23858 3 5 5.23858 5 8C5 10.7614 7.23858 13 10 13C12.7614 13 15 10.7614 15 8C15 5.23858 12.7614 3 10 3ZM10 15C8.27467 15 6.58373 15.4872 5.18916 16.4044C3.79322 17.3225 2.75846 18.6312 2.28407 20.1487C2.11928 20.6758 2.41302 21.2368 2.94015 21.4015C3.46728 21.5663 4.02818 21.2726 4.19297 20.7455C4.51622 19.7114 5.2391 18.7654 6.28818 18.0754C7.33862 17.3845 8.64345 17 10 17C11.3566 17 12.6614 17.3845 13.7118 18.0754C14.7609 18.7654 15.4838 19.7114 15.807 20.7455C15.9718 21.2726 16.5327 21.5663 17.0598 21.4015C17.587 21.2368 17.8807 20.6758 17.7159 20.1487C17.2415 18.6312 16.2068 17.3225 14.8108 16.4044C13.4163 15.4872 11.7253 15 10 15ZM18 9C18.5523 9 19 9.44772 19 10V12H21C21.5523 12 22 12.4477 22 13C22 13.5523 21.5523 14 21 14H19V16C19 16.5523 18.5523 17 18 17C17.4477 17 17 16.5523 17 16V14H15C14.4477 14 14 13.5523 14 13C14 12.4477 14.4477 12 15 12H17V10C17 9.44772 17.4477 9 18 9Z" fill="#171717"/>
</svg>
