<svg width="24" height="24" viewBox="0 0 24 24" fill="none" xmlns="http://www.w3.org/2000/svg">
<path fill-rule="evenodd" clip-rule="evenodd" d="M8.99596 9.08704C8.2211 9.81653 7.7373 10.8517 7.7373 12C7.7373 14.2091 9.52817 16 11.7373 16C12.8855 16 13.9207 15.5162 14.6502 14.7413L13.2347 13.3258C12.8683 13.7393 12.3332 14 11.7373 14C10.6327 14 9.7373 13.1045 9.7373 12C9.7373 11.404 9.99795 10.869 10.4115 10.5025L8.99596 9.08704Z" fill="#171717"/>
<path fill-rule="evenodd" clip-rule="evenodd" d="M16.9457 17.3298L15.4912 15.8752C14.3718 16.5286 13.094 17 11.7373 17C8.6594 17 5.98748 14.5735 4.64958 13.1013C4.21653 12.6248 4 12.3865 4 12C4 11.6135 4.21653 11.3752 4.64958 10.8987C5.37087 10.105 6.4799 9.03392 7.83124 8.21526L6.38162 6.76563C5.00002 7.67335 3.89296 8.75746 3.16945 9.55363C3.14718 9.57813 3.1207 9.60625 3.09085 9.63795C2.75664 9.99285 2 10.7963 2 12C2 13.2037 2.75664 14.0072 3.09085 14.3621C3.1207 14.3938 3.14718 14.4219 3.16945 14.4464C3.90542 15.2562 5.03825 16.3641 6.45322 17.2811C7.85906 18.1922 9.67546 19 11.7373 19C13.7624 19 15.5506 18.2208 16.9457 17.3298ZM9.24506 5.38643C10.0226 5.14705 10.8576 5 11.7373 5C13.7991 5 15.6156 5.8078 17.0214 6.71891C18.4364 7.63594 19.5692 8.74376 20.3052 9.55363C20.3274 9.5781 20.3538 9.60617 20.3836 9.63781L20.3838 9.63795C20.718 9.99284 21.4746 10.7963 21.4746 12C21.4746 13.2037 20.718 14.0072 20.3838 14.3621L20.3835 14.3623C20.3538 14.3939 20.3274 14.4219 20.3052 14.4464C20.0292 14.75 19.6974 15.0956 19.3159 15.4573L17.9011 14.0425C18.2549 13.7093 18.5651 13.3873 18.825 13.1013C19.2581 12.6248 19.4746 12.3865 19.4746 12C19.4746 11.6135 19.2581 11.3752 18.825 10.8987C17.4871 9.42646 14.8152 7 11.7373 7C11.4598 7 11.1856 7.01973 10.9153 7.0567L9.24506 5.38643Z" fill="#171717"/>
<path d="M4.7373 5L18.7373 19" stroke="#171717" stroke-width="2" stroke-linecap="round"/>
</svg>
