<svg width="24" height="24" viewBox="0 0 24 24" fill="none" xmlns="http://www.w3.org/2000/svg">
<path fill-rule="evenodd" clip-rule="evenodd" d="M10.2546 4.6875C11.0303 3.4375 12.9697 3.4375 13.7454 4.6875L20.727 15.9375C21.5027 17.1875 20.533 18.75 18.9816 18.75H5.01842C3.46695 18.75 2.49729 17.1875 3.27302 15.9375L10.2546 4.6875ZM11 15.25C11 14.6977 11.4477 14.25 12 14.25C12.5523 14.25 13 14.6977 13 15.25C13 15.8023 12.5523 16.25 12 16.25C11.4477 16.25 11 15.8023 11 15.25ZM13 8.25C13 7.69772 12.5523 7.25 12 7.25C11.4477 7.25 11 7.69772 11 8.25V12.25C11 12.8023 11.4477 13.25 12 13.25C12.5523 13.25 13 12.8023 13 12.25V8.25Z" fill="#FF8B00"/>
</svg>
