<svg width="24" height="24" viewBox="0 0 24 24" fill="none" xmlns="http://www.w3.org/2000/svg">
<path fill-rule="evenodd" clip-rule="evenodd" d="M10.268 5C11.0378 3.66667 12.9623 3.66667 13.7321 5L20.6603 17C21.4301 18.3333 20.4678 20 18.9282 20H5.0718C3.5322 20 2.56995 18.3333 3.33975 17L10.268 5ZM18.9282 18L12 6L5.0718 18H18.9282ZM11 16.5C11 15.9477 11.4477 15.5 12 15.5C12.5523 15.5 13 15.9477 13 16.5C13 17.0523 12.5523 17.5 12 17.5C11.4477 17.5 11 17.0523 11 16.5ZM13 10C13 9.44772 12.5523 9 12 9C11.4477 9 11 9.44772 11 10V14C11 14.5523 11.4477 15 12 15C12.5523 15 13 14.5523 13 14V10Z" fill="#171717"/>
</svg>
