<svg
    viewBox="0 0 1024 1024"
    version="1.1"
    xmlns="http://www.w3.org/2000/svg"
    p-id="23443"
    width="24"
    height="24">
    <path
        d="M770.327273 210.664727c16.244364 0 31.511273 4.189091 44.823272 11.496728 3.723636 1.256727 6.935273 3.351273 9.495273 6.050909 23.505455 16.849455 38.772364 44.404364 38.772364 75.543272v109.381819q-24.994909-10.379636-51.572364-15.406546V311.808a46.359273 46.359273 0 0 0-11.776-30.952727l-294.818909 203.403636a46.545455 46.545455 0 0 1-52.875636 0L157.835636 281.041455a46.359273 46.359273 0 0 0-11.589818 30.72v400.430545a46.545455 46.545455 0 0 0 46.545455 46.545455h327.68q12.334545 29.184 31.278545 54.597818h-363.985454a93.090909 93.090909 0 0 1-93.090909-93.090909V303.755636a93.090909 93.090909 0 0 1 93.090909-93.090909H770.327273zM735.976727 265.309091H228.817455l226.722909 160.023273a46.545455 46.545455 0 0 0 53.713454 0l226.676364-160.023273z m-61.160727 316.974545a99.281455 99.281455 0 0 1 198.562909 0v6.888728h20.154182q4.561455 0 9.076364 0.884363 4.468364 0.884364 8.704 2.653091 4.235636 1.722182 8.052363 4.282182 3.816727 2.56 7.074909 5.771636 3.258182 3.258182 5.771637 7.074909 2.56 3.816727 4.282181 8.052364 1.768727 4.189091 2.653091 8.750546 0.930909 4.468364 0.930909 9.076363v131.118546q0 4.561455-0.930909 9.076363-0.884364 4.468364-2.653091 8.704-1.722182 4.235636-4.282181 8.052364-2.56 3.816727-5.771637 7.074909-3.258182 3.258182-7.074909 5.771636-3.816727 2.56-8.052363 4.328728-4.189091 1.722182-8.704 2.606545-4.514909 0.930909-9.076364 0.930909h-238.871273q-4.561455 0-9.076363-0.930909-4.468364-0.884364-8.704-2.606545-4.235636-1.768727-8.052364-4.328728-3.816727-2.56-7.074909-5.771636-3.258182-3.258182-5.771637-7.074909-2.56-3.816727-4.282181-8.052364-1.768727-4.189091-2.653091-8.704-0.930909-4.514909-0.930909-9.076363v-131.118546q0-4.608 0.930909-9.076363 0.884364-4.514909 2.653091-8.750546 1.722182-4.235636 4.282181-8.052364 2.56-3.816727 5.771637-7.074909 3.258182-3.258182 7.074909-5.771636 3.816727-2.56 8.052364-4.282182 4.189091-1.768727 8.704-2.653091 4.514909-0.930909 9.076363-0.930909h20.154182v-6.795636z m41.890909 6.888728h114.781091v-6.842182q0-23.784727-16.756364-40.634182-16.849455-16.756364-40.634181-16.756364-23.738182 0-40.587637 16.756364-16.802909 16.849455-16.802909 40.634182v6.842182z m-41.890909 41.890909h-20.154182q-4.654545 0-4.654545 4.654545v131.118546q0 4.654545 4.654545 4.654545h238.871273q4.654545 0 4.654545-4.654545v-131.118546q0-4.654545-4.654545-4.654545h-20.154182v0.046545h-198.562909v-0.046545z m82.571636 63.627636v-17.547636q0-1.861818 0.372364-3.630546 0.325818-1.815273 1.024-3.490909 0.698182-1.722182 1.722182-3.258182 1.024-1.489455 2.327273-2.792727 1.303273-1.303273 2.792727-2.327273 1.536-1.024 3.258182-1.722181 1.675636-0.698182 3.490909-1.070546 1.815273-0.325818 3.630545-0.325818 1.861818 0 3.630546 0.325818 1.815273 0.372364 3.490909 1.070546t3.258182 1.722181q1.489455 1.024 2.792727 2.327273 1.303273 1.303273 2.327273 2.792727 0.977455 1.536 1.675636 3.258182 0.744727 1.675636 1.070545 3.490909 0.372364 1.768727 0.372364 3.630546v17.547636q0 1.861818-0.372364 3.630546-0.325818 1.861818-1.070545 3.490909-0.698182 1.722182-1.722182 3.258181-0.977455 1.489455-2.327273 2.792728-1.256727 1.303273-2.792727 2.327272-1.536 1.024-3.258182 1.722182-1.629091 0.698182-3.444363 1.070546-1.815273 0.325818-3.630546 0.325818-1.861818 0-3.630545-0.325818-1.815273-0.372364-3.490909-1.070546-1.722182-0.698182-3.258182-1.722182-1.489455-1.024-2.792727-2.327272-1.303273-1.303273-2.327273-2.792728-1.024-1.536-1.722182-3.258181-0.698182-1.675636-1.024-3.490909-0.372364-1.768727-0.372364-3.630546z"
        p-id="23444"></path>
    <path
        d="M811.845818 348.485818v49.245091q26.577455 5.026909 51.572364 15.36V303.755636a92.672 92.672 0 0 0-38.772364-75.589818 23.831273 23.831273 0 0 0-9.495273-6.050909 92.439273 92.439273 0 0 0-44.823272-11.450182H187.764364a93.230545 93.230545 0 0 0-93.090909 93.090909v416.488728a93.090909 93.090909 0 0 0 93.090909 93.090909h363.985454q-18.944-25.413818-31.278545-54.597818h-327.68a46.545455 46.545455 0 0 1-46.545455-46.545455V311.854545a46.359273 46.359273 0 0 1 11.636364-30.72l5.585454 3.863273 44.683637 30.813091 0.465454 0.325818 243.758546 168.168728a46.545455 46.545455 0 0 0 52.875636 0l227.002182-156.625455 3.723636-2.56 13.498182-9.309091 0.418909-0.279273 44.683637-30.813091 5.492363-3.816727a46.638545 46.638545 0 0 1 11.776 30.952727v36.677819zM627.805091 265.309091h108.171636l-11.077818 7.773091-77.265454 54.597818-138.379637 97.652364a46.545455 46.545455 0 0 1-38.493091 7.028363h-0.046545a46.498909 46.498909 0 0 1-15.173818-7.028363L317.207273 327.633455 239.895273 273.035636 228.817455 265.309091h398.987636z m26.530909 323.863273q-4.561455 0-9.029818 0.930909t-8.704 2.699636q-4.189091 1.768727-7.959273 4.328727-3.770182 2.56-6.981818 5.771637-3.258182 3.258182-5.771636 7.028363-2.513455 3.816727-4.235637 8.052364-1.722182 4.189091-2.606545 8.657455-0.930909 4.514909-0.930909 9.076363v131.118546q0 4.561455 0.930909 9.076363 0.884364 4.468364 2.653091 8.704 1.722182 4.235636 4.282181 8.052364 2.56 3.816727 5.771637 7.074909 3.258182 3.258182 7.074909 5.771636 3.816727 2.56 8.052364 4.328728 4.189091 1.722182 8.704 2.606545 4.514909 0.930909 9.076363 0.930909h238.871273q4.561455 0 9.076364-0.930909 4.468364-0.884364 8.704-2.606545 4.235636-1.768727 8.052363-4.328728 3.816727-2.56 7.074909-5.771636 3.258182-3.258182 5.771637-7.074909 2.56-3.816727 4.282181-8.052364 1.768727-4.189091 2.653091-8.704 0.930909-4.514909 0.930909-9.076363v-131.118546q0-4.561455-0.930909-9.076363-0.837818-4.468364-2.606545-8.657455-1.722182-4.189091-4.235636-8.052364-2.56-3.770182-5.771637-6.981818-3.211636-3.258182-6.981818-5.818182-3.770182-2.56-7.959273-4.328727-4.189091-1.768727-8.704-2.699636-4.468364-0.930909-9.029818-0.930909h-20.48v-6.842182c0-4.654545-0.279273-9.122909-0.930909-13.591273v-0.046545a99.328 99.328 0 0 0-196.701091 0v0.046545a100.072727 100.072727 0 0 0-0.930909 13.591273v6.842182h-20.48z m-4.328727 104.308363v-57.762909q0-4.468364 4.328727-4.654545h20.48v0.046545h198.562909v-0.046545h20.48q4.328727 0.186182 4.328727 4.654545v131.118546q0 4.654545-4.654545 4.654545h-238.871273q-4.654545 0-4.654545-4.654545v-73.355637z m114.176 15.639273q5.12 4.189091 11.822545 4.189091 6.656 0 11.822546-4.189091h-23.645091z m-6.795637-15.639273h37.236364v-16.337454q0-1.861818-0.372364-3.630546-0.325818-1.815273-1.070545-3.490909-0.698182-1.722182-1.722182-3.258182-0.977455-1.489455-2.327273-2.792727-1.256727-1.303273-2.792727-2.327273-1.536-1.024-3.258182-1.722181-1.629091-0.698182-3.444363-1.070546-1.815273-0.325818-3.630546-0.325818-1.861818 0-3.630545 0.325818-1.815273 0.372364-3.490909 1.070546-1.722182 0.698182-3.258182 1.722181-1.489455 1.024-2.792727 2.327273-1.303273 1.303273-2.327273 2.792727-1.024 1.536-1.722182 3.258182-0.698182 1.675636-1.024 3.490909-0.372364 1.768727-0.372364 3.630546v16.337454z m-20.200727-104.308363h-20.48v-6.842182q0-7.121455 1.489455-13.591273v-0.046545q3.537455-15.220364 15.313454-26.996364 11.170909-11.170909 25.460364-14.894545 7.168-1.861818 15.127273-1.861819 7.912727 0 15.127272 1.861819 14.289455 3.723636 25.460364 14.894545 11.776 11.776 15.313454 26.996364v0.046545q1.489455 6.516364 1.489455 13.591273v6.842182h-94.301091z"
        p-id="23445"></path>
</svg>