 <svg
    viewBox="0 0 1024 1024"
    version="1.1"
    xmlns="http://www.w3.org/2000/svg"
    p-id="5642"
    width="16"
    height="16"
    fill="#0074E6"
  >
    <path d="M470.109091 577.163636c-6.981818 0-11.636364-2.327273-16.290909-6.981818-9.309091-9.309091-9.309091-23.272727 0-32.581818L921.6 69.818182c9.309091-9.309091 23.272727-9.309091 32.581818 0s9.309091 23.272727 0 32.581818L486.4 570.181818c-4.654545 4.654545-11.636364 6.981818-16.290909 6.981818z"></path>
    <path d="M640 961.163636c-9.309091 0-18.618182-4.654545-20.945455-13.963636l-167.563636-374.690909-374.690909-167.563636c-9.309091-4.654545-13.963636-11.636364-13.963636-23.272728 0-9.309091 6.981818-18.618182 16.290909-20.945454L930.909091 62.836364c9.309091-2.327273 18.618182 0 23.272727 4.654545 6.981818 6.981818 9.309091 16.290909 4.654546 23.272727L660.945455 947.2c-2.327273 9.309091-9.309091 13.963636-20.945455 13.963636zM148.945455 386.327273l330.472727 146.618182c4.654545 2.327273 9.309091 6.981818 11.636363 11.636363l146.618182 330.472727L900.654545 123.345455 148.945455 386.327273z"></path>
  </svg>