<svg t="1712544431216" class="icon" viewBox="0 0 1177 1024" version="1.1"
    xmlns="http://www.w3.org/2000/svg" p-id="62649" width="24" height="24">
    <path
        d="M892.098907 150.155262H127.779183C62.417481 144.855664 5.888442 193.72973 0.588844 258.502588c-0.588844 5.299597-0.588844 11.188039-0.588844 16.487636v598.854514c5.888442 81.260495 71.250144 145.444508 153.099482 150.155262h713.679126c81.260495-4.121909 146.622197-68.305923 152.510639-150.155262V274.990224c4.121909-64.772858-45.341001-120.713053-110.113859-124.834962-5.888442-0.588844-11.776883 0-17.076481 0z m50.640598 723.689476c-5.299597 39.452559-36.508338 70.6613-75.960897 75.372053H153.099482c-39.452559-4.710753-71.250144-35.33065-76.549741-75.372053V400.414031l411.013226 279.700978c6.477286 4.121909 14.13226 6.477286 21.787234 6.477285 7.654974 0 15.309948-2.355377 21.787234-6.477285L942.739505 400.414031v473.430707z m0-564.701552l-432.80046 294.422081-432.80046-294.422081v-34.152962c0-34.152961 16.487637-50.051754 51.229443-50.051754h763.730879c34.741806 0 50.640598 15.898792 50.640598 50.051754v34.152962z"
        p-id="62650"></path>
    <path
        d="M817.315699 180.186314c0 99.514664 80.67165 180.186314 180.186314 180.186314S1177.688327 279.700978 1177.688327 180.186314 1097.016676 0 997.502013 0s-180.186314 80.67165-180.186314 180.186314z"
        p-id="62651"></path>
</svg>