<?xml version="1.0" standalone="no"?><!DOCTYPE svg PUBLIC "-//W3C//DTD SVG 1.1//EN" "http://www.w3.org/Graphics/SVG/1.1/DTD/svg11.dtd"><svg t="1710914944564" class="icon" viewBox="0 0 1024 1024" version="1.1" xmlns="http://www.w3.org/2000/svg" p-id="8959" xmlns:xlink="http://www.w3.org/1999/xlink" width="200" height="200"><path d="M960 896a21.333333 21.333333 0 0 1-21.333333-21.333333c0-294.08-239.253333-533.333333-533.333334-533.333334H286.166667l134.253333 134.246667a21.333333 21.333333 0 0 1-30.173333 30.173333l-170.666667-170.666666a21.333333 21.333333 0 0 1 0-30.173334l170.666667-170.666666a21.333333 21.333333 0 0 1 30.173333 30.173333L286.166667 298.666667H405.333333a575.533333 575.533333 0 0 1 576 576 21.333333 21.333333 0 0 1-21.333333 21.333333zM234.666667 512a21.266667 21.266667 0 0 1-15.086667-6.246667l-170.666667-170.666666a21.333333 21.333333 0 0 1 0-30.173334l170.666667-170.666666a21.333333 21.333333 0 0 1 30.173333 30.173333L94.166667 320l155.586666 155.58A21.333333 21.333333 0 0 1 234.666667 512z" fill="#0074E6" p-id="8960"></path></svg>