<svg width="20" height="20" viewBox="0 0 20 20" fill="none" xmlns="http://www.w3.org/2000/svg">
  <rect width="20" height="20" rx="10" fill="#E3FCEC"/>
  <path fill-rule="evenodd" clip-rule="evenodd"
        d="M10 5C8.34315 5 7 6.34315 7 8C7 9.65685 8.34315 11 10 11C11.6569 11 13 9.65685 13 8C13 6.34315 11.6569 5 10 5ZM6 8C6 5.79086 7.79086 4 10 4C12.2091 4 14 5.79086 14 8C14 10.2091 12.2091 12 10 12C7.79086 12 6 10.2091 6 8Z"
        fill="#006644" stroke="#006644" stroke-width="0.2" stroke-linecap="round" stroke-linejoin="round"/>
  <path fill-rule="evenodd" clip-rule="evenodd"
        d="M12.0318 10.6709C12.336 10.636 12.6153 10.8207 12.6556 11.0833L13.3278 15.4573C13.3559 15.6399 13.2604 15.8202 13.0821 15.9213C12.9038 16.0224 12.6742 16.0264 12.4913 15.9316L9.99935 14.6409L7.50741 15.9316C7.32448 16.0264 7.09486 16.0224 6.91656 15.9212C6.73826 15.8201 6.64278 15.6398 6.67087 15.4572L7.34309 11.088C7.38348 10.8254 7.6628 10.6408 7.96695 10.6757C8.2711 10.7106 8.48492 10.9517 8.44452 11.2143L7.92405 14.5972L9.71352 13.6703C9.88945 13.5792 10.1092 13.5792 10.2852 13.6703L12.0748 14.5973L11.5542 11.2094C11.5138 10.9468 11.7277 10.7057 12.0318 10.6709Z"
        fill="#006644" stroke="#006644" stroke-width="0.2" stroke-linecap="round" stroke-linejoin="round"/>
</svg>
