<svg width="24" height="24" viewBox="0 0 24 24" fill="none" xmlns="http://www.w3.org/2000/svg">
<path d="M9.17578 6.82353V5.41176C9.17578 5.03734 9.32452 4.67825 9.58928 4.4135C9.85404 4.14874 10.2131 4 10.5875 4H13.4111C13.7855 4 14.1446 4.14874 14.4093 4.4135C14.6741 4.67825 14.8228 5.03734 14.8228 5.41176V6.82353" stroke="#171717" stroke-width="1.5" stroke-linecap="round" stroke-linejoin="round"/>
<path d="M4.94141 6.82373V6.82373C5.47742 6.82373 5.92792 7.22635 5.98789 7.759L6.86025 15.5066C7.05053 17.1965 7.14567 18.0415 7.71494 18.5503C8.2842 19.059 9.13451 19.059 10.8351 19.059H13.1653C14.866 19.059 15.7163 19.059 16.2855 18.5503C16.8548 18.0415 16.95 17.1965 17.1402 15.5066L18.0126 7.759C18.0725 7.22635 18.523 6.82373 19.0591 6.82373V6.82373" stroke="#171717" stroke-width="1.5" stroke-linecap="round"/>
<path d="M4 6.82373H20" stroke="#171717" stroke-width="1.5" stroke-linecap="round"/>
<path d="M10.5 11V15" stroke="#171717" stroke-width="1.5" stroke-linecap="round" stroke-linejoin="round"/>
<path d="M13.5 11V15" stroke="#171717" stroke-width="1.5" stroke-linecap="round" stroke-linejoin="round"/>
</svg>
