<svg
    t="1712541396889"
    class="icon"
    viewBox="0 0 1024 1024"
    version="1.1"
    xmlns="http://www.w3.org/2000/svg"
    p-id="44852"
    width="24"
    height="24"
>
    <path
        d="M129.31 129.41h768a64 64 0 0 1 64 64 64 64 0 0 1-64 64h-768a64 64 0 0 1-64-64 64 64 0 0 1 64-64zM257.31 449.41h512a64 64 0 0 1 64 64 64 64 0 0 1-64 64h-512a64 64 0 0 1-64-64 64 64 0 0 1 64-64zM321.31 769.41h384a64 64 0 0 1 64 64 64 64 0 0 1-64 64h-384a64 64 0 0 1-64-64 64 64 0 0 1 64-64z"
        fill="#0074E6" p-id="44853"></path>
</svg>