<svg width="24" height="24" viewBox="0 0 24 24" fill="none" xmlns="http://www.w3.org/2000/svg">
<path d="M20 12H15.2L13.6 15H10.4L8.8 12H4" stroke="#171717" stroke-width="1.5" stroke-linecap="round" stroke-linejoin="round"/>
<path d="M6.76 6.8325L4 12V16.5C4 16.8978 4.16857 17.2794 4.46863 17.5607C4.76869 17.842 5.17565 18 5.6 18H18.4C18.8243 18 19.2313 17.842 19.5314 17.5607C19.8314 17.2794 20 16.8978 20 16.5V12L17.24 6.8325C17.1075 6.58259 16.9033 6.37228 16.6504 6.22521C16.3974 6.07814 16.1057 6.00015 15.808 6H8.192C7.89433 6.00015 7.60261 6.07814 7.34964 6.22521C7.09666 6.37228 6.89246 6.58259 6.76 6.8325Z" stroke="#171717" stroke-width="1.5" stroke-linecap="round" stroke-linejoin="round"/>
</svg>
