<?xml version="1.0" standalone="no"?><!DOCTYPE svg PUBLIC "-//W3C//DTD SVG 1.1//EN" "http://www.w3.org/Graphics/SVG/1.1/DTD/svg11.dtd"><svg t="1710915376232" class="icon" viewBox="0 0 1024 1024" version="1.1" xmlns="http://www.w3.org/2000/svg" p-id="23070" xmlns:xlink="http://www.w3.org/1999/xlink" width="200" height="200"><path d="M863.24 493.85h-33.63a64 64 0 0 0 1.16-12.09V129.93a64.07 64.07 0 0 0-64-64H255.1a64.07 64.07 0 0 0-64 64v351.84a64 64 0 0 0 1.16 12.09h-31.5a64.09 64.09 0 0 0-64 64V748a64.09 64.09 0 0 0 64 64h83.34v86.09a64.07 64.07 0 0 0 64 64h408.67a64.07 64.07 0 0 0 64-64V812h82.46a64.09 64.09 0 0 0 64-64V557.85a64.09 64.09 0 0 0-63.99-64zM255.1 129.93h511.67v351.84H255.1z m461.67 768.14H308.1V707.95h408.67v190.12zM863.24 748h-82.47v-40a64.07 64.07 0 0 0-64-64H308.1a64.07 64.07 0 0 0-64 64v40h-83.37V557.88h702.54z" fill="#0074E6" p-id="23071"></path></svg>