<?xml version="1.0" standalone="no"?><!DOCTYPE svg PUBLIC "-//W3C//DTD SVG 1.1//EN" "http://www.w3.org/Graphics/SVG/1.1/DTD/svg11.dtd"><svg t="1713421339739" class="icon" viewBox="0 0 1024 1024" version="1.1" xmlns="http://www.w3.org/2000/svg" p-id="5962" xmlns:xlink="http://www.w3.org/1999/xlink" width="48" height="48"><path d="M558.524478 465.421664a46.547155 46.547155 0 0 1 93.081838 0v279.257987a46.547155 46.547155 0 1 1-93.081838 0z m-186.176149 0a46.547155 46.547155 0 0 1 93.081838 0v279.257987a46.547155 46.547155 0 1 1-93.081838 0zM791.23531 279.257987h-558.515974v605.050657a46.547155 46.547155 0 0 0 46.547155 46.547156h465.421664a46.547155 46.547155 0 0 0 46.547155-46.547156z m-139.566632-93.094311v-46.534682a46.547155 46.547155 0 0 0-46.547155-46.547156H418.895484a46.547155 46.547155 0 0 0-46.547155 46.547156v46.534682z m93.081839 0h186.113786a46.547155 46.547155 0 0 1 0 93.094311H884.317148v605.050657a139.691356 139.691356 0 0 1-139.628993 139.691356H279.266491a139.691356 139.691356 0 0 1-139.691356-139.691356V279.257987H93.090342a46.547155 46.547155 0 1 1 0-93.094311h186.176149v-46.534682A139.691356 139.691356 0 0 1 418.957847 0H605.059161a139.691356 139.691356 0 0 1 139.691356 139.691356z" fill="#666869" p-id="5963"></path></svg>