<?xml version="1.0" standalone="no"?>
<!DOCTYPE svg PUBLIC "-//W3C//DTD SVG 1.1//EN" "http://www.w3.org/Graphics/SVG/1.1/DTD/svg11.dtd">
<svg t="1710914914988" class="icon" viewBox="0 0 1024 1024" version="1.1"
    xmlns="http://www.w3.org/2000/svg" p-id="8773" xmlns:xlink="http://www.w3.org/1999/xlink"
    width="200" height="200">
    <path
        d="M960 896a21.333333 21.333333 0 0 1-21.333333-21.333333c0-294.08-239.253333-533.333333-533.333334-533.333334H115.5l134.253333 134.246667a21.333333 21.333333 0 0 1-30.173333 30.173333l-170.666667-170.666666a21.333333 21.333333 0 0 1 0-30.173334l170.666667-170.666666a21.333333 21.333333 0 0 1 30.173333 30.173333L115.5 298.666667H405.333333a575.533333 575.533333 0 0 1 576 576 21.333333 21.333333 0 0 1-21.333333 21.333333z"
        fill="#0074E6" p-id="8774"></path>
</svg>