<?xml version="1.0" standalone="no"?><!DOCTYPE svg PUBLIC "-//W3C//DTD SVG 1.1//EN" "http://www.w3.org/Graphics/SVG/1.1/DTD/svg11.dtd"><svg t="1710915438086" class="icon" viewBox="0 0 1024 1024" version="1.1" xmlns="http://www.w3.org/2000/svg" p-id="24226" xmlns:xlink="http://www.w3.org/1999/xlink" width="200" height="200"><path d="M511.95983189 1020.76783047c-280.94439651 0-508.72824491-227.85836373-508.7282449-508.80043122 0-280.95021739 227.78501234-508.73406578 508.7282449-508.73406578 280.94905344 0 508.80858112 227.78501234 508.80858112 508.73406578C1020.76724793 792.90946674 792.90772139 1020.76783047 511.95983189 1020.76783047L511.95983189 1020.76783047zM534.10006699 48.58961237l0 141.0089381c0 12.25304064-9.88719331 22.14139904-22.14139904 22.14139904-12.17969038 0-22.0668837-9.8883584-22.0668837-22.14139904L489.89178311 48.58961237c-238.89005909 11.31927666-430.08942763 202.48604558-441.34233998 441.30275328l179.56456903 0c12.21345507 0 22.10181347 9.88952235 22.10181347 22.07386966 0 12.25187669-9.8883584 22.14023509-22.10181347 22.14023509L48.54944313 534.1064704c11.25291122 238.81554375 202.45344483 429.98347776 441.34233998 441.30391837L489.89178311 821.71529102c0-12.25187669 9.88719331-22.14023509 22.0668837-22.14023509 12.25304064 0 22.14139904 9.88719331 22.14139904 22.14023509l0 153.69626169c238.88773006-11.32160455 429.98929863-202.48837347 441.23638898-441.30391836L843.78275726 534.10763435c-12.21345507 0-22.10064839-9.8883584-22.10064839-22.1402351 0-12.18551239 9.88719331-22.07386965 22.10064839-22.07386965l131.55369757 0C964.09052957 251.07565682 772.98779705 59.90888789 534.10006699 48.58961237L534.10006699 48.58961237z" p-id="24227" fill="#0074E6"></path></svg>