<?xml version="1.0" standalone="no"?><!DOCTYPE svg PUBLIC "-//W3C//DTD SVG 1.1//EN" "http://www.w3.org/Graphics/SVG/1.1/DTD/svg11.dtd"><svg t="1710915302063" class="icon" viewBox="0 0 1024 1024" version="1.1" xmlns="http://www.w3.org/2000/svg" p-id="21978" xmlns:xlink="http://www.w3.org/1999/xlink" width="200" height="200"><path d="M180.0722963 877.42388148c-6.67496297 0-12.1362963-5.46133333-12.1362963-12.1362963V701.93303703c0-97.21173333 37.86524445-188.59804445 106.55668148-257.41084444 68.69143703-68.69143703 160.19911111-106.55668148 257.41084444-106.55668148h326.7090963c4.85451852 0 9.22358518 2.91271111 11.1653926 7.40314074 1.94180741 4.49042963 0.9709037 9.70903703-2.42725927 13.22856297L647.44106667 584.69641482c-4.61179259 4.85451852-12.37902222 4.85451852-17.11217778 0.24272593-4.85451852-4.61179259-4.85451852-12.37902222-0.24272592-17.11217778L829.97096297 362.2381037H531.90352592c-187.26305185 0-339.69493333 152.43188148-339.69493333 339.69493333v163.35454815c0 6.67496297-5.46133333 12.1362963-12.13629629 12.1362963z" fill="#0074E6" p-id="21979"></path><path d="M866.50121482 354.34951111c-3.15543703 0-6.18951111-1.21362963-8.61677037-3.51952593L611.2749037 104.22044445c-4.73315555-4.73315555-4.73315555-12.37902222 0-17.11217778 4.73315555-4.73315555 12.37902222-4.73315555 17.11217778 0L874.99662222 333.59644445c4.73315555 4.73315555 4.73315555 12.37902222 0 17.11217777-2.3058963 2.42725925-5.46133333 3.64088889-8.4954074 3.64088889z" fill="#0074E6" p-id="21980"></path></svg>