<?xml version="1.0" standalone="no"?><!DOCTYPE svg PUBLIC "-//W3C//DTD SVG 1.1//EN" "http://www.w3.org/Graphics/SVG/1.1/DTD/svg11.dtd"><svg t="1710987612651" class="icon" viewBox="0 0 1024 1024" version="1.1" xmlns="http://www.w3.org/2000/svg" p-id="27757" xmlns:xlink="http://www.w3.org/1999/xlink" width="200" height="200"><path d="M896 256a32 32 0 0 1-32 32h-704a32 32 0 0 1 0-64h704a32 32 0 0 1 32 32zM896 512a32 32 0 0 1-32 32h-704a32 32 0 0 1 0-64h704a32 32 0 0 1 32 32zM128 768a32 32 0 0 0 32 32h704a32 32 0 0 0 0-64h-704a32 32 0 0 0-32 32z" fill="#000000" fill-opacity=".9" p-id="27758"></path></svg>